<?xml version="1.0" encoding="utf-8"?>
<!-- Generator: Adobe Illustrator 24.1.2, SVG Export Plug-In . SVG Version: 6.00 Build 0)  -->
<svg version="1.1" id="圖層_1" xmlns="http://www.w3.org/2000/svg" xmlns:xlink="http://www.w3.org/1999/xlink" x="0px" y="0px"
	 viewBox="0 0 512 512" style="enable-background:new 0 0 512 512;" xml:space="preserve">
<path d="M237.3,204.3c-2.8-0.1-4.9-2.4-4.7-5.2c0.1-4.1,2.8-7.6,6.6-8.8c10.7-3.6,22.5-1.5,31.3,5.4c2,1.9,2.1,5,0.2,6.8
	c-1.9,2-5,2.1-6.8,0.2c-4.5-3.4-10.1-5-15.8-4.5c-2.2-0.1-4.3,0.4-6.2,1.5c0,2.5-2,4.5-4.5,4.5C237.4,204.3,237.4,204.3,237.3,204.3
	z"/>
<path d="M196.9,298.4c-6.7,0.4-13.3-1.9-18.4-6.4c-1.7-2.1-1.4-5.2,0.7-6.8c2.1-1.7,5.2-1.4,6.8,0.7l0,0c3.2,2.2,7.1,3.3,10.9,2.9
	c6.3,0.4,12.5-1.8,17.1-6.1c1.7-2.1,4.6-2.5,6.8-1c2.1,1.7,2.5,4.6,1,6.8c-0.1,0.1-0.2,0.2-0.3,0.3
	C215.1,295.4,206.1,298.9,196.9,298.4L196.9,298.4z"/>
<path d="M193.8,265.9c-3.3,0-6.5-1.3-8.9-3.6c-2.9-2.3-4.2-6.2-3.3-9.8c0.8-2.5,3.5-4,6.1-3.2c2.2,0.7,3.6,3,3.3,5.3
	c0.4,0.6,0.9,1,1.5,1.3c0.8,0.3,1.7,0.4,2.4,0.1c2.5-0.9,5.3,0.6,6.2,3.1c0.8,2.4-0.3,5-2.6,6.1
	C196.9,265.6,195.3,265.9,193.8,265.9L193.8,265.9z"/>
<path d="M285.7,179.2c-0.8,0-1.7-0.2-2.3-0.7c-15.2-8.5-56.7-6.7-62.1-0.9c-2,1.8-5.1,1.7-6.8-0.3c-1.7-1.8-1.7-4.5-0.2-6.4
	c9.7-10.3,56-10.9,73.9-0.9c2.3,1.3,3.2,4.3,1.9,6.6C289.2,178.3,287.5,179.2,285.7,179.2L285.7,179.2z"/>
<path d="M163.2,179.2c-0.8,0-1.5-0.2-2.3-0.6c-14.6-6.4-31-7.2-46.1-2.2c-2.4,1.1-5.3,0.1-6.4-2.4c-1.1-2.3-0.1-5.1,2.1-6.3
	c17.9-6.5,37.7-5.7,55,2.3c2.3,1.2,3.3,4.2,2,6.6C166.7,178.2,165,179.2,163.2,179.2L163.2,179.2z"/>
<path d="M128.7,204.4c-2.8-0.1-4.9-2.4-4.7-5.2c0.1-4.1,2.8-7.6,6.6-8.8c10.7-3.6,22.5-1.7,31.4,5.3c2,1.9,2.1,5,0.2,6.8
	c-1.9,2-5,2.1-6.8,0.2c-4.5-3.3-10.1-5-15.8-4.5c-2.2-0.1-4.3,0.4-6.2,1.5c0,2.5-2,4.5-4.4,4.5C128.8,204.4,128.8,204.4,128.7,204.4
	L128.7,204.4z"/>
<path d="M189.7,485.9c-2.6,0-5.1-1.6-4.9-4.9c3.3-17.2,9-30.2,13.9-41.8c1.5-4,3.9-7.7,6.7-10.9c2-1.9,5.1-1.8,6.8,0.2
	c1.9,2,1.8,5.1-0.2,6.8c-2,2.3-3.5,5.1-4.5,7.9c-8.3,18.2-8.3,23.1-13,37.8C193.7,483.9,192.5,485.9,189.7,485.9z"/>
<path d="M259.1,490.6c-2.5-0.7-4.2-3.2-3.5-5.8c3.8-15.4-9.4-47.9-10.7-50.2c-1.4-2.2-0.9-5.3,1.4-6.7c2.2-1.4,5.3-0.9,6.7,1.4
	c1.9,3.2,14.9,33.2,12,57.7c-0.6,2.2-2.5,3.7-4.7,3.7C260.3,490.7,259.6,490.7,259.1,490.6z"/>
<path d="M357.4,248.2c-0.3,0-0.7,0-1-0.1c-2.6-0.6-4.3-3.1-3.7-5.7c2.8-10,12.3-16.6,22.7-15.5c2.6,0.3,4.5,2.8,4.2,5.4
	c-0.3,2.6-2.8,4.5-5.4,4.2c-5.4-0.4-10.4,2.8-12,7.8C361.7,246.5,359.7,248.2,357.4,248.2L357.4,248.2z"/>
<path d="M394.3,421.2c6.8-5.7,10.8-14.1,10.9-22.9c1.5-16.3-10.5-39.8-21.2-55c-11.7-17.8-29.7-30.4-50.4-35.4
	c4.7-7.1,8.8-14.4,12.2-22.3c2.9,1.9,6.2,3.2,9.5,4c22.5,5.1,41.2-15,46.3-37.3c3.5-14,1-28.8-7.1-40.8c17.5-42,6.8-97.7,3.1-114
	C388.5,57,338.1,0,255.6,0C168,0,115.9,36.5,100.7,108.5c-2.3,10.8-1.3,18,2.9,21.9c1.2,1.1,2.5,1.9,4.1,2.3
	c-2.2,18.9-1.7,37.8,1.8,56.4c1.5,10.1,2.6,20.3,3.1,30.5c2,56.7,12.8,94,34,117.5c5.4,5.8,11.6,10.9,18.4,15
	c-9.4,9.5-15.8,21.7-18.1,34.8c-2.6,10.8-1.9,22.3,2.1,32.6c-41.3,24.7-70.4,62-56.4,70.2c21.1,13.8,73.2,22,152.3,22l23.3-0.4
	c99.7-4.2,151.7-27.1,157.5-30.4l2.8-1.5C440.8,472.3,441,457.2,394.3,421.2z M112.2,123.5c-0.7,0.2-1.3,0.2-2,0
	c-0.8-0.4-2.3-2.3-0.1-12.9C124.4,42.7,172,9.7,255.5,9.7c84.6,0,126,60.6,132.9,90c3.5,15.1,13.2,65.7-1.2,104.6
	c-3.2-2.2-6.8-3.7-10.6-4.6c-11-1.8-22.3,1.2-30.9,8.2c-2.9,2.5-5.4,5.3-7.7,8.4c-12.5-8.9-28-42.3-28.9-64.2
	c-0.7-18.3-11.7-39.4-28.7-43c-7.9-2-16.1,2.8-18.3,10.7c-2.4,4.9-3.4,6.2-6.2,6.2c-7.5,1.1-14.8-3.1-17.4-10.3
	c-1.9-5.5-6.8-9.3-12.7-9.7c-7.2-0.3-13.6,4.3-15.4,11.2c-2.1,4.9-3.5,8.2-13.6,8.2h-0.2c-5.6,0-7.5-3.2-10.4-8.7
	c-2.4-4.7-5.7-11-13.9-10.6c-6.3,0.4-9.4,6.2-12.1,11.2c-1.1,2.5-2.6,4.9-4.6,6.8c-2.5,2.2-6.1,3-9.4,2.2c-2.5-0.9-4.4-2.9-5.1-5.4
	c-1.1-4.7-5.1-8.4-9.9-9c-6.4,0-12.2,3.4-15.2,9C115.1,122.3,113.7,123,112.2,123.5L112.2,123.5z M153.9,330.9
	c-19.3-21.4-29.7-57.8-31.5-111.4c-0.6-10.6-1.7-21.1-3.2-31.4c-3.5-18.5-4-37.6-1.4-56.3c2.5-1.2,4.7-3,6.4-5.2
	c2.2-3.5,4.9-4.9,6.1-4.7c1,0.1,1.7,2,1.9,2.5c1.8,5.4,6,9.7,11.5,11.5c6.3,1.8,13,0.3,18.1-3.7c3.2-2.8,5.7-6.2,7.4-10
	c1-1.9,3.3-6.1,4.2-6.2c1.3,0,2,0.6,4.5,5.3c2.8,8.2,10.4,13.7,19,13.9c10,1.5,19.6-4.4,22.8-14c1.8-4.1,2.3-5.3,6.5-5.3
	c1.2,0,1.9,0.4,4.2,4.6c4.4,10.3,14.9,16.4,26,15.2c6.9-0.4,12.8-5.1,14.9-11.7c2.6-5.5,3.5-6.4,7.5-5.5c11.9,2.5,20.5,19.6,21.1,34
	c1,25.5,20.2,67.1,37.8,74.4c2.4,1.2,5.3,0.4,6.6-2c2.2-3.5,4.9-6.7,8-9.5c6.4-5.1,14.6-7.3,22.6-6.2c4.3,0.9,8.2,3.2,11.1,6.4
	c7.5,9.8,9.9,22.6,6.7,34.6c-4,17.3-18.3,33.6-34.7,30c-4.1-1.1-7.8-3.1-10.9-6c-1.2-1-2.9-1.3-4.4-0.8c-1.5,0.4-2.6,1.7-3.2,3.1
	c-4.1,11.2-9.9,21.9-17.2,31.4c-6.2,8.3-13.5,15.7-21.7,21.8c-0.2,0.2-5,3.6-7.3,5.1c-2.3,1.4-3,4.4-1.7,6.7
	c0.9,1.4,2.4,2.3,4.2,2.3c1.4-0.3,2.8-0.9,4-1.7c1.3,8.5,3.4,16.9,6.3,24.9c-15,19.2-49.9,35.7-72.2,42.1c-3.5-2-6.8-4.4-9.8-7.1
	c4.5-11.6,5.8-24.1,4-36.5c9.5-1.2,18.9-3.5,27.9-6.8c2.4-1.2,3.4-4.1,2.2-6.5c-1.1-2.3-3.9-3.3-6.3-2.3c-7.5,3-15.4,5-23.5,5.8
	c-8,0.8-16.1,0.7-24.1-0.4c-9.7-1.3-19.2-4.2-28-8.5C167.7,343.2,160.2,337.6,153.9,330.9L153.9,330.9z M156.4,389.1
	c2.1-12.5,8.5-23.7,18-32c8.9,4,18.4,6.7,28.2,8c5.2,0.7,10.3,1.1,15.4,1.1c1.7,9.4,1,19-2,28c-4.9-4.6-6.2-11.8-3.3-17.9
	c1.4-2.2,0.9-5.3-1.3-6.7s-5.3-0.9-6.7,1.3l-0.1,0.1c-6.8,10.7-3.2,23.5,10.3,36.1c5,5,10.8,8.9,17.2,11.8c0.8,0.2,1.7,0.2,2.4,0
	c22.6-6.9,64.9-25,81.3-49.1c7.3-9.2,8.7-21.7,3.6-32.3c-1.2-2.4-4.1-3.4-6.5-2.2c-2.4,1.2-3.4,4.1-2.2,6.5l0,0
	c2,3.9,2.4,8.4,1.4,12.6c-1.7-6.3-2.9-12.6-3.7-19c7.1-5.7,13.6-12.1,19.2-19.3c20,3.7,37.5,15.5,48.6,32.5
	c12.5,17.6,20.5,37.6,19.4,48.5c-1.3,13.5-7.6,17-10.1,17.9c-9.3-3.5-19.2-4.9-29-3.9c-12.2,0.3-24.4,2.1-36.2,5.2
	c-27.7,6.6-80.2,23.4-93.6,26c-2.4-0.2-4.9-0.7-7.2-1.4c-3.7-1-20.7-6.2-23.5-7.2c-12.8-3.7-25.1-8.8-36.9-15
	C154.6,409.7,153.7,399,156.4,389.1L156.4,389.1z M422.3,471.8l-1.6,0.9c-5.6,3.2-55.8,25-153,29.1l-23,0.4
	c-76.8,0-124.8-6.1-143.7-18.6c-7.6-5.9,24.7-37.1,54.1-56.3c1.5,1,15.9,7.7,25.6,11.2c14.9,5.3,30.1,9.8,45.4,13.6
	c4.5-0.3,9-1.2,13.5-2.6c3.9-1.1,62.6-18.6,83.2-23.6c5.4-1.4,10.9-2.5,16.4-3.2c30.5-4.3,42.7,1.3,43.3,1.7
	C413.1,445.4,434.3,466.4,422.3,471.8z"/>
<path d="M269.2,208.4v8c0,5-4.1,9-9,9h-2.8c-5,0-9-4.1-9-9v-8c0-5,4-9,9-9l0,0h2.8C265.1,199.3,269.2,203.3,269.2,208.4
	C269.2,208.3,269.2,208.4,269.2,208.4z"/>
<path d="M161.7,208.5v8c0,5-4.1,9-9,9h-2.8c-5,0-9-4.1-9-9v-8c0-5,4-9,9-9l0,0h2.8C157.6,199.3,161.6,203.4,161.7,208.5
	C161.7,208.4,161.7,208.4,161.7,208.5z"/>
</svg>
