<svg id="Layer_1" enable-background="new 0 0 512 512" height="512" viewBox="0 0 512 512" width="512" xmlns="http://www.w3.org/2000/svg"><g><g><path d="m494.205 319.218-49.596-38.545c-1.597-1.24-2.512-3.111-2.512-5.132v-39.05c0-2.021.915-3.892 2.512-5.132l49.609-38.556c8.439-6.559 10.767-18.479 5.414-27.73l-42.906-74.151c-5.342-9.231-16.827-13.171-26.707-9.171l-58.289 23.6c-1.874.758-3.954.613-5.705-.395l-33.928-19.544c-1.749-1.009-2.912-2.733-3.192-4.732l-8.658-62.144c-1.474-10.567-10.63-18.536-21.3-18.536h-85.857c-10.676 0-19.838 7.974-21.312 18.546l-2.666 19.136c-.571 4.103 2.291 7.892 6.394 8.464 4.104.568 7.892-2.292 8.465-6.394l2.666-19.136c.445-3.202 3.22-5.616 6.453-5.616h85.857c3.227 0 5.996 2.409 6.44 5.605l8.659 62.144c.922 6.616 4.771 12.324 10.561 15.66l33.928 19.545c5.778 3.328 12.64 3.803 18.823 1.301l58.289-23.6c2.994-1.216 6.475-.018 8.094 2.778l42.906 74.151c1.617 2.794.914 6.395-1.635 8.375l-49.609 38.556c-5.28 4.103-8.307 10.29-8.307 16.976v39.05c0 6.686 3.028 12.873 8.307 16.976l49.596 38.545c2.549 1.98 3.252 5.582 1.635 8.376l-42.909 74.157c-1.615 2.794-5.089 3.986-8.084 2.774l-58.31-23.606c-6.181-2.505-13.044-2.031-18.825 1.3l-33.924 19.543c-1.495.861-2.857 1.883-4.077 3.035v-25.962c16.148-7.804 30.859-18.643 43.198-32.134 2.796-3.057 2.584-7.801-.473-10.596-3.058-2.797-7.801-2.584-10.597.473-24.158 26.412-58.451 41.509-94.211 41.509-.299 0-.6-.001-.899-.003-68.124-.482-123.721-54.111-126.571-122.091-1.934-46.167 21.546-89.971 60.441-114.076v111.879c0 4.206 2.702 7.857 6.73 9.087l55.048 16.778c1.817.556 3.739.555 5.547.002l55.057-16.78c4.025-1.229 6.729-4.88 6.729-9.087v-114.819c40.088 22.374 65.546 65.23 65.546 111.519 0 21.548-5.471 42.844-15.821 61.584-2.002 3.626-.687 8.189 2.94 10.191 3.627 2.004 8.191.687 10.192-2.939 11.573-20.955 17.69-44.758 17.69-68.836 0-27.594-7.895-54.367-22.831-77.427-14.545-22.455-35.002-40.327-59.161-51.685-2.965-1.395-6.385-1.177-9.151.578-2.759 1.751-4.406 4.748-4.406 8.017v119.742l-49.554 15.104-49.554-15.104v-117.265c0-3.352-1.711-6.388-4.579-8.123-2.871-1.739-6.366-1.848-9.34-.29-23.623 12.345-43.287 31.008-56.867 53.972-14.013 23.696-20.807 50.878-19.644 78.605 1.532 36.564 16.994 70.796 43.536 96.39 9.643 9.298 20.379 17.089 31.893 23.262v28.438c-1.201-1.124-2.54-2.121-4.005-2.965l-33.924-19.542c-5.778-3.328-12.64-3.802-18.823-1.301l-58.297 23.603c-2.989 1.213-6.467.019-8.083-2.775l-10.631-18.379c-2.075-3.585-6.663-4.809-10.249-2.736-3.585 2.074-4.811 6.663-2.737 10.248l10.633 18.377c5.34 9.228 16.817 13.167 26.699 9.167l58.296-23.602c1.874-.76 3.953-.614 5.705.395l33.924 19.541c1.752 1.01 2.917 2.737 3.197 4.74l8.328 59.781c.025.32.067.635.131.942l.198 1.418c1.472 10.566 10.627 18.534 21.296 18.534h85.872c10.669 0 19.824-7.968 21.297-18.533l8.655-62.126c.279-2.002 1.444-3.729 3.197-4.738l33.925-19.543c1.752-1.01 3.83-1.152 5.705-.394l58.31 23.606c9.884 4.003 21.36.062 26.7-9.166l42.909-74.157c5.351-9.25 3.024-21.172-5.416-27.731zm-195.282 177.782h-85.872c-3.226 0-5.994-2.409-6.438-5.604l-.217-1.556v-94.776c16.099 6.345 33.345 9.736 51.023 9.862.337.002.667.003 1.004.003 16.176 0 32.084-2.767 47.081-8.016v93.452l-.144 1.03c-.443 3.196-3.211 5.605-6.437 5.605z"/><path d="m25.353 339.415c-1.617-2.794-.914-6.395 1.635-8.375l49.613-38.558c5.277-4.101 8.303-10.286 8.303-16.97v-39.054c0-6.686-3.028-12.873-8.307-16.976l-49.592-38.542c-2.551-1.982-3.254-5.586-1.636-8.382l42.903-74.146c1.617-2.797 5.095-3.993 8.094-2.779l58.303 23.605c6.183 2.503 13.044 2.029 18.825-1.3l33.924-19.543c5.792-3.337 9.642-9.047 10.565-15.666l1.56-11.195c.571-4.103-2.291-7.892-6.394-8.464-4.116-.572-7.892 2.291-8.465 6.394l-1.559 11.195c-.279 2.002-1.444 3.729-3.197 4.738l-33.923 19.543c-1.752 1.01-3.832 1.152-5.707.394l-58.304-23.605c-9.885-4.001-21.367-.057-26.708 9.172l-42.902 74.146c-5.355 9.253-3.028 21.178 5.415 27.738l49.592 38.543c1.597 1.24 2.512 3.11 2.512 5.132v39.054c0 1.989-.938 3.905-2.508 5.126l-49.613 38.558c-8.439 6.558-10.767 18.479-5.415 27.73l16.251 28.086c1.391 2.403 3.91 3.745 6.5 3.745 1.275 0 2.567-.325 3.749-1.009 3.585-2.075 4.811-6.663 2.737-10.248z"/></g></g></svg>