<?xml version="1.0"?>
<svg xmlns="http://www.w3.org/2000/svg" viewBox="0 0 64 64" width="512" height="512"><g id="Medal"><path d="M23.87,47.59a8.1954,8.1954,0,0,1-5.06-4.69,2.227,2.227,0,0,0-1.92-1.35,8.3622,8.3622,0,0,1-3.41-.99l-6.5,17.1a.9994.9994,0,0,0,1.27,1.3l7.87-2.83,4,7.35A1.0176,1.0176,0,0,0,21,64h.07a.9908.9908,0,0,0,.86-.64l5.89-15.48a7.84,7.84,0,0,1-1.37.12A8.386,8.386,0,0,1,23.87,47.59Z"/><path d="M57.02,57.66l-6.5-17.1a8.3172,8.3172,0,0,1-3.4.99,2.2292,2.2292,0,0,0-1.93,1.35,8.1954,8.1954,0,0,1-5.06,4.69,8.386,8.386,0,0,1-2.58.41,7.84,7.84,0,0,1-1.37-.12l5.89,15.48a.9908.9908,0,0,0,.86.64H43a1.0176,1.0176,0,0,0,.88-.52l4-7.35,7.87,2.83a.9994.9994,0,0,0,1.27-1.3Z"/><path d="M32,9A14,14,0,1,0,46,23,14.0158,14.0158,0,0,0,32,9Zm8.5078,12.39-3.5293,3.439.833,4.856a1,1,0,0,1-1.45,1.0542L32,28.4468l-4.3613,2.2925a1,1,0,0,1-1.45-1.0542l.833-4.856L23.4922,21.39a1,1,0,0,1,.5547-1.706l4.876-.7085,2.1806-4.418a1.0409,1.0409,0,0,1,1.793,0l2.1806,4.418,4.876.7085a1,1,0,0,1,.5547,1.706Z"/><path d="M33.5166,20.332,32,17.26,30.4834,20.332a.999.999,0,0,1-.7529.5474l-3.3907.4927,2.4541,2.3916a1.0012,1.0012,0,0,1,.2872.8852l-.5791,3.377,3.0332-1.5943a.9991.9991,0,0,1,.93,0l3.0332,1.5943-.5791-3.377a1.0012,1.0012,0,0,1,.2872-.8852L37.66,21.3721,34.27,20.8794A.999.999,0,0,1,33.5166,20.332Z"/><path d="M39.5107,45.6885a6.1926,6.1926,0,0,0,3.8272-3.5406A4.2526,4.2526,0,0,1,46.9824,39.55a6.23,6.23,0,0,0,4.6387-2.5571,6.0858,6.0858,0,0,0,.9756-5.086,4.1352,4.1352,0,0,1,1.3926-4.1884,6.1012,6.1012,0,0,0-.0118-9.4468A4.1349,4.1349,0,0,1,52.6,14.0811a6.0808,6.0808,0,0,0-.9785-5.0748,6.237,6.237,0,0,0-4.6484-2.5571,4.2529,4.2529,0,0,1-3.6358-2.5971A6.189,6.189,0,0,0,39.5107.312a6.2889,6.2889,0,0,0-5.2578.626,4.3222,4.3222,0,0,1-4.5068,0A6.2886,6.2886,0,0,0,24.4883.312a6.19,6.19,0,0,0-3.8252,3.54A4.2561,4.2561,0,0,1,17.0176,6.45a6.23,6.23,0,0,0-4.6387,2.5571,6.0858,6.0858,0,0,0-.9756,5.086,4.1355,4.1355,0,0,1-1.3926,4.1885,6.1011,6.1011,0,0,0,.0118,9.4467A4.1349,4.1349,0,0,1,11.4,31.9189a6.0808,6.0808,0,0,0,.9785,5.0748,6.2372,6.2372,0,0,0,4.6484,2.5571,4.2529,4.2529,0,0,1,3.6358,2.5971,6.189,6.189,0,0,0,3.8262,3.54,6.2889,6.2889,0,0,0,5.2578-.626,4.3226,4.3226,0,0,1,4.5058,0l.001.0005a6.2911,6.2911,0,0,0,5.2568.626ZM32,39A16,16,0,1,1,48,23,16.0183,16.0183,0,0,1,32,39Z"/></g></svg>
