<?xml version="1.0" encoding="utf-8"?>
<!-- Generator: Adobe Illustrator 25.2.1, SVG Export Plug-In . SVG Version: 6.00 Build 0)  -->
<svg version="1.1" id="Icons" xmlns="http://www.w3.org/2000/svg" xmlns:xlink="http://www.w3.org/1999/xlink" x="0px" y="0px"
	 viewBox="0 0 512 512" style="enable-background:new 0 0 512 512;" xml:space="preserve">
<path d="M75.5,436.5c5.2,5.2,13.4,5.2,18.6,0l0,0L256,274.6l162,161.9c5.2,5.2,13.5,5.2,18.6,0c5.2-5.2,5.2-13.5,0-18.6L274.6,256
	L436.5,94c5.2-5.2,5.2-13.5,0-18.6c-5.2-5.2-13.5-5.2-18.6,0l0,0L256,237.4L94.1,75.5c-5.6-4.7-13.8-4.1-18.5,1.4
	c-4.2,4.9-4.2,12.2,0,17.1l161.9,162L75.5,418C70.4,423,70.4,431.3,75.5,436.5L75.5,436.5z"/>
</svg>
