<svg id="Layer_1" enable-background="new 0 0 512 512" height="512" viewBox="0 0 512 512" width="512" xmlns="http://www.w3.org/2000/svg"><g><g><path d="m474.498 441h-436.996c-16.568 0-30-13.431-30-30v-310c0-16.568 13.431-30 30-30h436.996c16.568 0 30 13.431 30 30v310c0 16.569-13.431 30-30 30z" fill="#fafafa"/><path d="m67.501 441 411.13-305.436v305.436z" fill="#f5f5f5"/><path d="m67.501 441h-30c-16.568 0-30-13.431-30-30v-310c0-16.568 13.431-30 30-30h30z" fill="#f44336"/><path d="m37.502 71h30v370h-30z" fill="#e53935"/><path d="m444.498 441h30c16.568 0 30-13.431 30-30v-310c0-16.568-13.431-30-30-30h-30z" fill="#f44336"/><path d="m474.498 71h-30c16.568 0 30 13.431 30 30v310c0 16.569-13.431 30-30 30h30c16.568 0 30-13.431 30-30v-310c0-16.569-13.431-30-30-30z" fill="#e53935"/><path d="m37.502 71h436.996v30.027l-218.498 162.665-218.498-169.769z" fill="#fafafa"/><path d="m498.561 83.113c-9.892-13.291-28.687-16.044-41.978-6.149l-200.583 149.328-200.584-149.329c-13.29-9.894-32.084-7.141-41.978 6.149-9.893 13.29-7.141 32.084 6.149 41.979l218.498 162.665c5.316 3.958 11.615 5.937 17.914 5.937 6.3 0 12.599-1.979 17.915-5.937l218.498-162.665c13.291-9.894 16.044-28.688 6.149-41.978z" fill="#f44336"/><g><path d="m498.561 83.113c-9.187-12.343-26.051-15.591-39.055-8.066 3.437 1.983 6.536 4.681 9.055 8.066 9.894 13.29 7.142 32.084-6.148 41.979l-218.498 162.664c-.94.7-1.919 1.315-2.915 1.891 4.637 2.682 9.814 4.046 15 4.046 6.3 0 12.599-1.979 17.915-5.937l218.498-162.665c13.29-9.894 16.043-28.688 6.148-41.978z" fill="#e53935"/></g></g><path d="m504.5 167.577c4.143 0 7.5-3.358 7.5-7.5v-59.077c0-20.678-16.822-37.5-37.5-37.5h-437c-20.678 0-37.5 16.822-37.5 37.5v249.948c0 4.143 3.358 7.5 7.5 7.5s7.5-3.357 7.5-7.5v-219.925c.037.028.07.057.107.084l44.893 33.421v268.972h-22.5c-12.407 0-22.5-10.094-22.5-22.5v-26.205c0-4.143-3.358-7.5-7.5-7.5s-7.5 3.357-7.5 7.5v26.205c0 20.678 16.822 37.5 37.5 37.5h437c20.678 0 37.5-16.822 37.5-37.5v-219.436c0-4.142-3.357-7.5-7.5-7.5s-7.5 3.358-7.5 7.5v219.436c0 12.406-10.094 22.5-22.5 22.5h-22.499v-268.972l44.893-33.421c.037-.028.07-.056.106-.083v29.053c0 4.142 3.357 7.5 7.5 7.5zm-67.5 265.923h-362v-257.805l158.606 118.076c6.521 4.854 14.264 7.421 22.394 7.421s15.873-2.566 22.394-7.421l158.606-118.076zm59.763-329.211c-.871 5.947-4.006 11.198-8.826 14.787l-218.5 162.665c-3.913 2.912-8.559 4.452-13.437 4.452-4.877 0-9.524-1.539-13.436-4.452l-218.5-162.665c-9.951-7.408-12.021-21.532-4.612-31.484 3.589-4.821 8.84-7.956 14.787-8.827s11.876.626 16.697 4.215l43.963 32.729c3.321 2.472 8.021 1.785 10.495-1.538 2.473-3.322 1.785-8.021-1.538-10.495l-33.818-25.176h371.923l-185.961 138.442-126.41-94.108c-3.322-2.473-8.022-1.786-10.495 1.538-2.473 3.322-1.785 8.021 1.538 10.495l130.889 97.442c2.658 1.979 6.3 1.979 8.957 0l200.584-149.33c4.82-3.589 10.747-5.088 16.698-4.215 5.946.871 11.197 4.006 14.786 8.828 3.59 4.821 5.087 10.75 4.216 16.697z"/></g></svg>