<?xml version="1.0"?>
<svg xmlns="http://www.w3.org/2000/svg" id="Layer_2" data-name="Layer 2" width="512" height="512" viewBox="0 0 64 64"><path d="M32,3a28.968,28.968,0,0,0-19.182,7.25,1,1,0,1,0,1.323,1.5,26.985,26.985,0,1,1-2.824,2.893,1,1,0,1,0-1.531-1.286A29,29,0,1,0,32,3Z"/><path d="M48.784,47.758a1,1,0,0,0,1.41-.106A24,24,0,1,0,32,56a23.747,23.747,0,0,0,14.942-5.217A1,1,0,0,0,45.7,49.218,21.76,21.76,0,0,1,32,54a22,22,0,1,1,16.678-7.652A1,1,0,0,0,48.784,47.758Z"/><path d="M32,45a1,1,0,0,0,1-1V33H44a1,1,0,0,0,0-2H33V20a1,1,0,0,0-2,0V31H20a1,1,0,0,0,0,2H31V44A1,1,0,0,0,32,45Z"/></svg>
