<svg id="Layer_2" enable-background="new 0 0 64 64" height="512" viewBox="0 0 64 64" width="512" xmlns="http://www.w3.org/2000/svg"><g><g><path d="m53 47.5h-13c-.552 0-1-.447-1-1s.448-1 1-1h13c.552 0 1 .447 1 1s-.448 1-1 1z"/></g><g><path d="m46.5 54c-.552 0-1-.447-1-1v-13c0-.553.448-1 1-1s1 .447 1 1v13c0 .553-.448 1-1 1z"/></g><g><path d="m39 59c-2.757 0-5-2.244-5-5 0-.553.448-1 1-1s1 .447 1 1c0 1.654 1.346 3 3 3 .552 0 1 .447 1 1s-.448 1-1 1z"/></g><g><path d="m54 59h-15c-.552 0-1-.447-1-1s.448-1 1-1h15c.552 0 1 .447 1 1s-.448 1-1 1z"/></g><g><path d="m35 55c-.552 0-1-.447-1-1v-15c0-.553.448-1 1-1s1 .447 1 1v15c0 .553-.448 1-1 1z"/></g><g><path d="m54 59c-.552 0-1-.447-1-1s.448-1 1-1c1.654 0 3-1.346 3-3 0-.553.448-1 1-1s1 .447 1 1c0 2.756-2.243 5-5 5z"/></g><g><path d="m58 55c-.552 0-1-.447-1-1v-15c0-.553.448-1 1-1s1 .447 1 1v15c0 .553-.448 1-1 1z"/></g><g><path d="m58 40c-.552 0-1-.447-1-1 0-1.654-1.346-3-3-3-.552 0-1-.447-1-1s.448-1 1-1c2.757 0 5 2.242 5 5 0 .553-.448 1-1 1z"/></g><g><path d="m54 36h-15c-.552 0-1-.447-1-1s.448-1 1-1h15c.552 0 1 .447 1 1s-.448 1-1 1z"/></g><g><path d="m35 40c-.552 0-1-.447-1-1 0-2.758 2.243-5 5-5 .552 0 1 .447 1 1s-.448 1-1 1c-1.654 0-3 1.346-3 3 0 .553-.448 1-1 1z"/></g><g><path d="m54 30c-.552 0-1-.447-1-1s.448-1 1-1c1.654 0 3-1.346 3-3 0-.553.448-1 1-1s1 .447 1 1c0 2.756-2.243 5-5 5z"/></g><g><path d="m58 26c-.552 0-1-.447-1-1v-15c0-.553.448-1 1-1s1 .447 1 1v15c0 .553-.448 1-1 1z"/></g><g><path d="m54 30h-15c-.552 0-1-.447-1-1s.448-1 1-1h15c.552 0 1 .447 1 1s-.448 1-1 1z"/></g><g><path d="m58 11c-.552 0-1-.447-1-1 0-1.654-1.346-3-3-3-.552 0-1-.447-1-1s.448-1 1-1c2.757 0 5 2.242 5 5 0 .553-.448 1-1 1z"/></g><g><path d="m54 7h-15c-.552 0-1-.447-1-1s.448-1 1-1h15c.552 0 1 .447 1 1s-.448 1-1 1z"/></g><g><path d="m35 11c-.552 0-1-.447-1-1 0-2.758 2.243-5 5-5 .552 0 1 .447 1 1s-.448 1-1 1c-1.654 0-3 1.346-3 3 0 .553-.448 1-1 1z"/></g><g><path d="m35 26c-.552 0-1-.447-1-1v-15c0-.553.448-1 1-1s1 .447 1 1v15c0 .553-.448 1-1 1z"/></g><g><path d="m39 30c-2.757 0-5-2.244-5-5 0-.553.448-1 1-1s1 .447 1 1c0 1.654 1.346 3 3 3 .552 0 1 .447 1 1s-.448 1-1 1z"/></g><g><path d="m25 30c-.552 0-1-.447-1-1s.448-1 1-1c1.654 0 3-1.346 3-3 0-.553.448-1 1-1s1 .447 1 1c0 2.756-2.243 5-5 5z"/></g><g><path d="m29 26c-.552 0-1-.447-1-1v-15c0-.553.448-1 1-1s1 .447 1 1v15c0 .553-.448 1-1 1z"/></g><g><path d="m25 30h-15c-.552 0-1-.447-1-1s.448-1 1-1h15c.552 0 1 .447 1 1s-.448 1-1 1z"/></g><g><path d="m29 11c-.552 0-1-.447-1-1 0-1.654-1.346-3-3-3-.552 0-1-.447-1-1s.448-1 1-1c2.757 0 5 2.242 5 5 0 .553-.448 1-1 1z"/></g><g><path d="m25 7h-15c-.552 0-1-.447-1-1s.448-1 1-1h15c.552 0 1 .447 1 1s-.448 1-1 1z"/></g><g><path d="m6 11c-.552 0-1-.447-1-1 0-2.758 2.243-5 5-5 .552 0 1 .447 1 1s-.448 1-1 1c-1.654 0-3 1.346-3 3 0 .553-.448 1-1 1z"/></g><g><path d="m6 26c-.552 0-1-.447-1-1v-15c0-.553.448-1 1-1s1 .447 1 1v15c0 .553-.448 1-1 1z"/></g><g><path d="m10 30c-2.757 0-5-2.244-5-5 0-.553.448-1 1-1s1 .447 1 1c0 1.654 1.346 3 3 3 .552 0 1 .447 1 1s-.448 1-1 1z"/></g><g><path d="m10 59c-2.757 0-5-2.244-5-5 0-.553.448-1 1-1s1 .447 1 1c0 1.654 1.346 3 3 3 .552 0 1 .447 1 1s-.448 1-1 1z"/></g><g><path d="m25 59h-15c-.552 0-1-.447-1-1s.448-1 1-1h15c.552 0 1 .447 1 1s-.448 1-1 1z"/></g><g><path d="m6 55c-.552 0-1-.447-1-1v-15c0-.553.448-1 1-1s1 .447 1 1v15c0 .553-.448 1-1 1z"/></g><g><path d="m6 40c-.552 0-1-.447-1-1 0-2.758 2.243-5 5-5 .552 0 1 .447 1 1s-.448 1-1 1c-1.654 0-3 1.346-3 3 0 .553-.448 1-1 1z"/></g><g><path d="m25 36h-15c-.552 0-1-.447-1-1s.448-1 1-1h15c.552 0 1 .447 1 1s-.448 1-1 1z"/></g><g><path d="m29 40c-.552 0-1-.447-1-1 0-1.654-1.346-3-3-3-.552 0-1-.447-1-1s.448-1 1-1c2.757 0 5 2.242 5 5 0 .553-.448 1-1 1z"/></g><g><path d="m29 55c-.552 0-1-.447-1-1v-15c0-.553.448-1 1-1s1 .447 1 1v15c0 .553-.448 1-1 1z"/></g><g><path d="m25 59c-.552 0-1-.447-1-1s.448-1 1-1c1.654 0 3-1.346 3-3 0-.553.448-1 1-1s1 .447 1 1c0 2.756-2.243 5-5 5z"/></g></g></svg>