<?xml version="1.0"?>
<svg xmlns="http://www.w3.org/2000/svg" id="Capa_1" enable-background="new 0 0 512 512" height="512px" viewBox="0 0 512 512" width="512px"><g><g><path d="m449.742 406.293c0 5.641-4.573 10.215-10.215 10.215h-421.812c-5.641 0-10.215-4.573-10.215-10.215v-221.453c0-5.641 4.573-10.215 10.215-10.215h421.813c5.641 0 10.215 4.573 10.215 10.215v221.453z" fill="#78c2a4" data-original="#78C2A4"/><path d="m439.528 174.625h-19.862c5.641 0 10.215 4.573 10.215 10.215v221.454c0 5.641-4.573 10.215-10.215 10.215h19.862c5.642 0 10.215-4.573 10.215-10.215v-221.454c-.001-5.642-4.574-10.215-10.215-10.215z" fill="#66b394" data-original="#66B394"/><path d="m419.742 342.127v-93.121c-24.511 0-44.381-19.87-44.381-44.381h-293.48c0 24.511-19.87 44.381-44.381 44.381v93.121c24.511 0 44.381 19.87 44.381 44.381h293.48c0-24.511 19.871-44.381 44.381-44.381z" fill="#e0f8c5" data-original="#E0F8C5"/><path d="m375.361 204.625h-27.156c0 19.413 12.464 35.915 29.827 41.94 8.706 3.021 14.554 11.231 14.554 20.446v57.112c0 9.222-5.842 17.423-14.554 20.446-17.363 6.024-29.827 22.526-29.827 41.94h27.156c0-24.511 19.87-44.381 44.381-44.381v-93.121c-24.51-.001-44.381-19.871-44.381-44.382z" fill="#ccf49f" data-original="#CCF49F"/><path d="m382.182 122.699s20.549-27.207 61.159-27.207c36.206 0 61.159 27.931 61.159 60.46 0 37.651-34.014 82.2-122.318 120.919-88.304-38.719-122.318-83.268-122.318-120.919 0-32.529 24.953-60.46 61.159-60.46 40.61 0 61.159 27.207 61.159 27.207z" fill="#eaaadd" data-original="#EAAADD" class="" style="fill:#FB5252" data-old_color="#eaaadd"/><g><path d="m443.341 95.492c-4.894 0-9.49.403-13.801 1.098 29.562 5.432 49.091 30.591 49.091 59.362 0 35.753-30.678 77.726-109.384 115.021 4.177 1.98 8.484 3.947 12.934 5.898 88.305-38.719 122.319-83.268 122.319-120.919 0-32.529-24.952-60.46-61.159-60.46z" fill="#e490d0" data-original="#E490D0" class="active-path" style="fill:#C12020" data-old_color="#e490d0"/></g><g><path d="m228.079 358.067c4.143 0 7.5-3.357 7.5-7.5v-5.91c13.06-3.189 21.437-14.289 23.276-25.235 2.386-14.188-5.026-26.521-18.883-31.42-1.446-.511-2.919-1.042-4.394-1.591v-26.653c6.792.864 11.99 3.355 12.146 3.432 3.702 1.839 8.189.342 10.044-3.353 1.857-3.703.361-8.21-3.341-10.067-.487-.244-8.397-4.131-18.85-5.082v-4.123c0-4.143-3.357-7.5-7.5-7.5s-7.5 3.357-7.5 7.5v5.171c-.573.144-1.146.301-1.72.474-9.186 2.768-16.046 10.612-17.904 20.474-1.703 9.038 1.225 17.778 7.64 22.81 3.098 2.43 6.887 4.657 11.984 6.979v33.81c-3.792-.48-6.594-1.692-11.007-4.58-3.47-2.267-8.115-1.297-10.383 2.17s-1.296 8.115 2.17 10.383c7.513 4.915 12.784 6.588 19.22 7.104v5.207c.002 4.142 3.36 7.5 7.502 7.5zm15.984-41.132c-.761 4.525-3.639 9.298-8.484 11.821v-26.38c9.502 3.709 8.906 12.048 8.484 14.559zm-26.21-39.244c-1.962-1.539-2.809-4.769-2.156-8.229.503-2.672 2.041-5.785 4.883-7.661v17.763c-.992-.611-1.913-1.234-2.727-1.873z" data-original="#000000" class="" style="fill:#000000"/><path d="m333.376 303.067c4.143 0 7.5-3.357 7.5-7.5s-3.357-7.5-7.5-7.5h-20.776c-4.143 0-7.5 3.357-7.5 7.5s3.357 7.5 7.5 7.5z" data-original="#000000" class="" style="fill:#000000"/><path d="m123.866 288.067c-4.143 0-7.5 3.357-7.5 7.5s3.357 7.5 7.5 7.5h20.777c4.143 0 7.5-3.357 7.5-7.5s-3.357-7.5-7.5-7.5z" data-original="#000000" class="" style="fill:#000000"/><path d="m422.451 379.831v-2.001c0-4.143-3.357-7.5-7.5-7.5s-7.5 3.357-7.5 7.5v2.001c0 4.143 3.357 7.5 7.5 7.5s7.5-3.358 7.5-7.5z" data-original="#000000" class="" style="fill:#000000"/><path d="m34.791 211.302v2.001c0 4.143 3.357 7.5 7.5 7.5s7.5-3.357 7.5-7.5v-2.001c0-4.143-3.357-7.5-7.5-7.5s-7.5 3.358-7.5 7.5z" data-original="#000000" class="" style="fill:#000000"/><path d="m49.791 379.831v-2.001c0-4.143-3.357-7.5-7.5-7.5s-7.5 3.357-7.5 7.5v2.001c0 4.143 3.357 7.5 7.5 7.5s7.5-3.358 7.5-7.5z" data-original="#000000" class="" style="fill:#000000"/><path d="m443.342 87.992c-31.388 0-51.771 14.841-61.159 23.725-9.39-8.884-29.772-23.725-61.159-23.725-39.527 0-68.659 30.454-68.659 67.96 0 3.707.308 7.436.903 11.173h-161.873c-4.143 0-7.5 3.357-7.5 7.5s3.357 7.5 7.5 7.5h165.823c1.844 5.022 4.2 10.033 7.067 15.001h-182.403c-4.143 0-7.5 3.357-7.5 7.5 0 20.336-16.545 36.881-36.882 36.881-4.143 0-7.5 3.357-7.5 7.5v93.121c0 4.143 3.357 7.5 7.5 7.5 20.337 0 36.882 16.545 36.882 36.881 0 4.143 3.357 7.5 7.5 7.5h183.17c4.143 0 7.5-3.357 7.5-7.5s-3.357-7.5-7.5-7.5h-176.211c-3.288-22.619-21.222-40.552-43.841-43.841v-79.203c22.619-3.288 40.553-21.222 43.841-43.84h185.752c2.432 3.042 5.05 6.057 7.865 9.036 21.59 22.852 54.129 43.906 96.713 62.578 1.917.841 4.103.842 6.023 0 9.523-4.176 18.542-8.47 27.048-12.876v64.305c-22.618 3.288-40.552 21.222-43.84 43.84h-73.363c-4.143 0-7.5 3.357-7.5 7.5s3.357 7.5 7.5 7.5h80.322c4.143 0 7.5-3.357 7.5-7.5 0-20.336 16.545-36.881 36.881-36.881 4.143 0 7.5-3.357 7.5-7.5v-79.459c5.229-3.014 10.231-6.076 15-9.184v152.81c0 1.497-1.218 2.715-2.715 2.715h-421.812c-1.497 0-2.715-1.218-2.715-2.715v-221.455c0-1.497 1.218-2.715 2.715-2.715h43.693c4.143 0 7.5-3.357 7.5-7.5s-3.357-7.5-7.5-7.5h-43.693c-9.768.001-17.715 7.948-17.715 17.715v221.454c0 9.768 7.947 17.715 17.715 17.715h421.812c9.768 0 17.715-7.947 17.715-17.715v-163.308c10.104-7.622 18.882-15.491 26.299-23.583 2.799-3.054 2.592-7.798-.462-10.597-3.054-2.797-7.796-2.59-10.597.462-19.661 21.455-50.031 41.431-90.3 59.402-39.248-17.516-69.119-36.956-88.821-57.81-17.008-18.001-25.997-36.988-25.997-54.908 0-28.984 22.183-52.96 53.659-52.96 36.128 0 54.433 23.263 55.175 24.228 1.41 1.867 3.622 2.956 5.962 2.967 2.315-.01 4.562-1.086 5.988-2.941.761-.99 19.065-24.253 55.193-24.253 31.459 0 53.658 23.966 53.658 52.96 0 9.881-2.678 20.041-7.959 30.198-1.911 3.675-.48 8.203 3.194 10.114 3.673 1.911 8.203.481 10.114-3.194 6.403-12.316 9.65-24.805 9.65-37.118.002-37.444-29.07-67.96-68.656-67.96z" data-original="#000000" class="" style="fill:#000000"/></g></g></g> </svg>
