<svg id="Layer_1" enable-background="new 0 0 98 98" height="512" viewBox="0 0 98 98" width="512" xmlns="http://www.w3.org/2000/svg"><g><path d="m1.975 41.704h2v20.625h-2z"/><path d="m1.975 33.255h2v4.331h-2z"/><path d="m83.9719 66.5494 1.3477 1.4775c3.8433-3.5039 6.7944-7.6011 8.7715-12.1777l-1.8359-.793c-1.8638 4.3145-4.651 8.1812-8.2833 11.4932z"/><path d="m96.1589 49.2667-1.96-.3984c-.2329 1.1455-.5327 2.2886-.8916 3.397l1.9023.6162c.3824-1.1798.7018-2.3961.9493-3.6148z"/><path d="m25.242 95.001h40.412v2h-40.412z"/><path d="m16.417 95.001h5.604v2h-5.604z"/><path d="m70.202 88.574h8.694v2h-8.694z"/><path d="m1.8411 90.5743h22.2161l.0051.0029h33.9512l.0051-.0029h9.1722v-2h-6.0833c5.8608-4.2097 10.2288-10.1227 12.5442-16.8351l5.5972-3.9677c8.6187-6.1128 13.5615-15.2671 13.5615-25.1157 0-4.6821-4.1362-8.4917-9.2202-8.4917h-8.0562v-4.0244h-8.9293c.7021-5.5369-2.3286-10.9603-7.5473-13.2153-6.4353-2.799-13.9092.1536-16.7109 6.5977-.9109 2.1083-1.2249 4.3733-.9385 6.6177h-34.8765v30.4042c0 11.1461 5.4628 21.5911 14.4348 28.0303h-19.1252zm73.6928-50.5283h.9224 7.1338c1.8096 0 3.3384 1.1953 3.3384 2.6099 0 13.3254-11.3857 20.4824-11.5164 20.6266.221-2.7489.0757-2.1731.1218-23.2365zm-.4517 25.9277c.5532-.5892 13.8463-7.7463 13.8463-23.3179 0-2.542-2.395-4.6099-5.3384-4.6099h-7.1338-.9224v-1.8818h8.0562c3.9814 0 7.2202 2.9121 7.2202 6.4917 0 17.269-15.1583 24.8533-16.2703 26.0022.2159-.8851.3968-1.78.5422-2.6843zm-30.9008-41.6563c2.3588-5.4246 8.6525-7.9183 14.0806-5.5581 4.4761 1.9346 7.0454 6.6318 6.3276 11.3804h-8.0553c-.285-1.0983-1.0518-2.0253-2.1287-2.4938l.0018-.0043c-.8799-.3813-1.2852-1.4082-.9033-2.2881s1.4077-1.2856 2.2876-.9033c.8799.3818 1.2856 1.4082.9038 2.2881l1.835.7959c.6816-1.5721.1829-3.3498-1.0862-4.3806l.8298-1.9129-1.835-.7959-.8298 1.913c-1.6199-.2224-3.2585.6281-3.9402 2.1998-.8199 1.8912.0502 4.0963 1.9399 4.9175l-.0019.0043c.3267.1417.5933.374.7765.6602-5.5967 0-1.2562 0-10.9635 0-.2988-1.9711-.0395-3.9691.7613-5.8222zm-35.6499 36.2266v-15.6621h49.3086v-2h-49.3086v-2.8359h8.3315v-2h-8.3315v-5.9063h65.0024v5.9063h-52.1987v2h52.1987v2.8359h-11.2016v2h11.2017v15.6621c0 11.4869-6.1442 22.2015-16.0535 28.0303h-32.8853c-9.9156-5.8269-16.0637-16.5414-16.0637-28.0303z"/><path d="m14.5896 64.0435-1.9824.2646c.1973 1.4775.5146 2.9541.9429 4.3877l1.916-.5723c-.398-1.3334-.6929-2.706-.8765-4.08z"/><path d="m26.512 82.9136c-4.459-2.9038-7.9238-7.0361-10.0195-11.9502l-1.8398.7842c2.252 5.2808 5.9756 9.7212 10.7686 12.8418z"/><path d="m60.3015 81.7686-1.3457-1.4795c-1.0571.9624-2.1997 1.8452-3.3965 2.6245l1.0918 1.6758c1.2862-.8379 2.5142-1.7871 3.6504-2.8208z"/><path d="m69.554 63.5567-1.9883-.2119c-.5854 5.4858-2.8257 10.5933-6.478 14.7695l1.5059 1.3164c3.9242-4.4878 6.3314-9.9765 6.9604-15.874z"/><path d="m22.7795 25.3589c1.6094.6982 3.3081 1.0522 5.0493 1.0522 5.0664 0 9.6426-3.0029 11.6587-7.6504 2.7876-6.4253-.1724-13.9209-6.5981-16.7085-6.4511-2.7969-13.9208.1736-16.708 6.5986-1.3501 3.1128-1.4077 6.5649-.1611 9.7207 1.2461 3.1559 3.6464 5.6373 6.7592 6.9874zm-4.7631-15.9121c2.3433-5.402 8.6308-7.922 14.0771-5.5596 5.4141 2.3486 7.9077 8.6641 5.5591 14.0776-1.6982 3.916-5.5547 6.4463-9.8237 6.4463-1.4653 0-2.8965-.2983-4.2534-.8872-2.6226-1.1377-4.645-3.228-5.6953-5.8872-1.0499-2.6586-1.0015-5.5673.1362-8.1899z"/><path d="m24.4054 19.0979-.8417 1.9402 1.835.7959.8422-1.9413c1.7745.2432 3.3069-.7401 3.9401-2.1998.3975-.9165.4146-1.9326.0474-2.8618-.3667-.9292-1.0732-1.6597-1.9897-2.0571-.881-.3815-1.2863-1.4055-.9033-2.2876.3785-.8719 1.3945-1.2905 2.2876-.9038.4263.1851.7554.5249.9258.957.1709.4321.1631.9048-.022 1.3311l1.835.7959c.3975-.9165.4141-1.9326.0474-2.8618-.2405-.6086-.6379-1.1193-1.1331-1.5197l.8294-1.912-1.835-.7959-.8294 1.9119c-1.7466-.244-3.294.7104-3.9406 2.2014-.8209 1.892.043 4.0943 1.9424 4.9185.8799.3813 1.2852 1.4082.9033 2.2881-.6121 1.4123-2.6465 1.3837-3.2134-.0537-.1709-.4316-.1631-.9043.022-1.3306l-1.835-.7959c-.3975.916-.4141 1.9326-.0474 2.8613.2403.6086.6378 1.1194 1.133 1.5197z"/></g></svg>