<svg height="512" viewBox="0 0 25 25" width="512" xmlns="http://www.w3.org/2000/svg"><g id="Layer_1" data-name="Layer 1"><path d="m22.77 10.38-10-8a.48.48 0 0 0 -.62 0l-10 8a.5.5 0 0 0 .62.78l1.23-.93v9.85a2.69 2.69 0 0 0 2.72 2.65h3.78a.5.5 0 0 0 .5-.5v-5a1.54 1.54 0 0 1 1.5-1.56 1.44 1.44 0 0 1 1.06.46 1.5 1.5 0 0 1 .44 1.1v5a.5.5 0 0 0 .5.5h3.8a2.68 2.68 0 0 0 2.7-2.65v-9.83l1.14.91a.51.51 0 0 0 .31.11.48.48 0 0 0 .39-.19.5.5 0 0 0 -.07-.7zm-2.77 9.7a1.68 1.68 0 0 1 -1.71 1.65h-3.29v-4.49a2.56 2.56 0 0 0 -.72-1.8 2.44 2.44 0 0 0 -1.78-.76 2.53 2.53 0 0 0 -2.5 2.56v4.49h-3.27a1.69 1.69 0 0 1 -1.73-1.65v-10.66l7.49-6 7.51 6z"/></g></svg>