<?xml version="1.0" encoding="utf-8"?>
<!-- Generator: Adobe Illustrator 24.2.3, SVG Export Plug-In . SVG Version: 6.00 Build 0)  -->
<svg version="1.1" id="_x31_-_Mzipi" xmlns="http://www.w3.org/2000/svg" xmlns:xlink="http://www.w3.org/1999/xlink" x="0px"
	 y="0px" viewBox="0 0 512 512" style="enable-background:new 0 0 512 512;" xml:space="preserve">
<g>
	<path d="M1.9,164.7v302.5c0,12.2,9.9,22.1,22.1,22.1h61.8V142.6H24C11.8,142.6,1.9,152.6,1.9,164.7z"/>
	<path d="M102.4,142.6h307.1v346.7H102.4L102.4,142.6z"/>
	<path d="M488,142.6h-61.8v346.7H488c12.2,0,22.1-9.9,22.1-22.1V164.7C510.1,152.6,500.2,142.6,488,142.6L488,142.6z"/>
	<path d="M256,63.9c36,0,65.8,27.2,69.9,62.1h41.4C363.1,68.3,314.8,22.7,256,22.7S148.9,68.3,144.7,126h41.4
		C190.2,91.1,220,63.9,256,63.9z"/>
</g>
</svg>
