<svg id="Layer_1" enable-background="new 0 0 64 64" height="512" viewBox="0 0 64 64" width="512" xmlns="http://www.w3.org/2000/svg"><path d="m20.9 12.2-15.3-9.2h30.4c.6 0 1 .4 1 1v12c0 .6.4 1 1 1s1-.4 1-1v-12c0-1.7-1.4-3-3-3h-34s-1 0-1 1v48c0 .3.2.7.5.8l4.2 2.7c.2.1 1 .3 1.4-.3.3-.5.2-1.1-.3-1.4l-3.8-2.3v-45.7l16.8 10.1c.7.4 1.2 1.2 1.2 2.1v12c0 .6.4 1 1 1s1-.4 1-1v-12.1c0-1.5-.8-3-2.1-3.7z"/><path d="m22 31.2c-.6 0-1 .4-1 1v28.9l-10.2-6.7c-.5-.3-1.1-.2-1.4.3s-.2 1.1.3 1.4l10.1 6.6c.3.2 1.3.5 2.1 0 .7-.4 1.1-1.1 1.1-1.9v-28.6c0-.5-.4-1-1-1z"/><path d="m38 35c-.6 0-1 .4-1 1v12c0 .6-.5 1-1 1h-10c-.6 0-1 .4-1 1s.4 1 1 1h10c1.7 0 3-1.4 3-3v-12c0-.6-.4-1-1-1z"/><path d="m62.1 23.8s-13.1-10.3-13.1-10.3c-.9-.8-2.3-.9-3.3 0-.5.5-.7 1.1-.7 1.8v3.5s0 .1-.1.1h-10.8c-.6 0-1 .4-1 1s.4 1 1 1h11.8c.6 0 1.1-.5 1.1-1.1v-4.6c0-.2.3-.6.6-.3 0 0 13.1 10.2 13.1 10.2.6.6.5 1.1 0 1.5l-10 7.8c-.4.3-.5 1-.2 1.4.5.6 1.2.3 1.4.2 0 0 10.1-7.9 10.1-7.9.6-.6.9-1.4.9-2.2.1-.7-.2-1.5-.8-2.1z"/><path d="m47.6 37c-.1.1-.6.2-.6-.3v-4.7c0-.6-.4-1-1-1h-18.2c-.5 0-.8-.4-.8-.8v-8.3c0-.5.4-.8.8-.8h2.2c.6 0 1-.4 1-1s-.4-1-1-1h-2.2c-1.6 0-2.8 1.3-2.8 2.8v8.3c0 1.6 1.3 2.8 2.8 2.8h17.2v3.7c0 1 .6 1.9 1.5 2.2s2.1-.1 2.6-.5c.4-.4.4-1 0-1.4s-1.1-.4-1.5 0z"/><path d="m6.6 7.2c-.7-.5-1.6 0-1.6.8v2c0 .6.4 1 1 1 1.2 0 1-1.1 1-1.1l.4.3c.5.3 1.1.2 1.4-.3s.2-1.1-.2-1.4z"/><path d="m6 13c-.6 0-1 .4-1 1v2c0 .6.4 1 1 1s1-.4 1-1v-2c0-.6-.4-1-1-1z"/><path d="m54.5 28.6c.4.6 1.2.3 1.4.2l2.7-2c.4-.2.6-1 0-1.6l-2-1.5c-.4-.3-1.1-.2-1.4.2s-.2 1.1.2 1.4l.9.7-1.6 1.2c-.4.3-.5.9-.2 1.4z"/><circle cx="18" cy="36" r="1"/></svg>