<?xml version="1.0" encoding="utf-8"?>
<!-- Generator: Adobe Illustrator 24.1.2, SVG Export Plug-In . SVG Version: 6.00 Build 0)  -->
<svg version="1.1" id="lefty" xmlns="http://www.w3.org/2000/svg" xmlns:xlink="http://www.w3.org/1999/xlink" x="0px" y="0px"
	 viewBox="0 0 178.1 26.6" style="enable-background:new 0 0 178.1 26.6;" xml:space="preserve">
<style type="text/css">
	.st0{fill:#6C757D;}
	.st1{fill:#ADB5BD;}
	.st2{fill:#FFCC73;}
	.st3{fill:#FFB03E;}
</style>
<g id="author">
	<g id="Gen">
		<path class="st0" d="M178.1,14.8v6.4h-1.3c-0.5,0-0.9-0.4-0.9-0.9V15c0-1.7-0.8-2.5-2.3-2.5c-0.6,0-1.1,0.2-1.5,0.6
			c-0.5,0.4-0.8,1.1-0.8,1.9v5.3c0,0.5-0.4,1-1,1H169v-9.4c0-0.5,0.4-1.1,0.9-1.1h1.3v0.9C174.4,9.3,178.1,11.9,178.1,14.8z"/>
		<path class="st0" d="M161.9,12c0.8,1,1.2,2.5,1.2,4.3h-7.7c0.1,1,0.3,1.7,0.8,2.2c0.4,0.5,1.1,0.8,1.9,0.8c0.7,0,1.3-0.2,1.7-0.5
			c0.2-0.2,0.5-0.5,0.7-0.8s0.5-0.4,0.8-0.4h1.7c-0.2,1-0.7,1.8-1.4,2.4c-0.9,0.8-2.1,1.2-3.4,1.2c-1.5,0-2.8-0.5-3.6-1.4
			c-1-1-1.4-2.3-1.4-4c0-1.5,0.4-2.8,1.4-3.8c0.9-1.1,2.1-1.6,3.6-1.6C159.7,10.3,161,10.9,161.9,12z M156.3,12.8
			c-0.4,0.4-0.7,1-0.8,1.9h5.3c-0.2-1.7-1.1-2.5-2.7-2.5C157.3,12.2,156.7,12.4,156.3,12.8z"/>
		<path class="st0" d="M145.2,7.6c1,0.8,1.7,2,1.9,3.6h-1.7c-0.4,0-0.7-0.2-0.9-0.6c-0.2-0.6-0.6-1.1-1.1-1.4
			c-0.7-0.5-1.5-0.7-2.6-0.7c-1.3,0-2.4,0.4-3.2,1.4c-0.9,1-1.3,2.3-1.3,4s0.4,3,1.1,3.9c0.8,1,2.1,1.4,3.8,1.4
			c0.7,0,1.3-0.1,1.9-0.2c0.6-0.2,1.1-0.4,1.5-0.7v-2.9h-2.8c-0.5,0-1-0.4-1-1v-1h5.2c0.5,0,1,0.4,1,1v5.1c-0.8,0.6-1.6,1-2.6,1.4
			c-1,0.3-2.2,0.5-3.5,0.5c-2.3,0-4-0.7-5.3-2.2c-1.2-1.3-1.8-3.1-1.8-5.2s0.6-3.9,1.8-5.3c1.2-1.5,2.9-2.2,5-2.2
			C142.7,6.4,144.2,6.8,145.2,7.6z"/>
	</g>
	<path id="の" class="st0" d="M125.5,8.7c1.5,1.4,2.3,3.1,2.3,5.1c0,2.3-0.8,4-2.2,5.4c-1,1-4.1,2.1-5.9,2.5l-0.3-0.9
		c-0.2-0.5,0.1-1.1,0.7-1.2c1.8-0.4,3.2-1,4-1.8c1-0.9,1.5-2.2,1.5-3.9c0-1.6-0.6-2.9-1.9-3.8c-1-0.7-2.1-1.2-3.3-1.3l-0.4,3.7
		c-0.4,2.3-0.9,4-1.5,5.3c-0.9,1.7-2,2.5-3.5,2.5c-1.3,0-2.3-0.5-3.1-1.6c-0.7-1-1.1-2.3-1.1-3.7c0-2.2,0.8-4,2.3-5.6
		c1.7-1.8,3.9-2.6,6.6-2.6C122,6.7,124,7.3,125.5,8.7z M117.8,13.3c0.3-1.5,0.5-3,0.7-4.6c-1.3,0.2-2.4,0.8-3.4,1.7
		c-1.4,1.2-2,2.7-2,4.5c0,1,0.2,1.8,0.6,2.5c0.4,0.6,0.9,0.9,1.4,0.9C116.2,18.3,117.1,16.6,117.8,13.3z"/>
	<g id="子">
		<path class="st0" d="M94.9,10c1.5-0.9,2.9-1.8,4.3-3.1h-9.5c-0.5,0-1-0.4-1-1V5H101c0.5,0,1,0.4,1,1v0.6c0,0.3-0.1,0.5-0.3,0.7
			c-1.4,1.4-3,2.7-4.8,3.9v1.4h6.4c0.5,0,1,0.4,1,1v1.1H97l-0.1,5.6c0,1.3-0.7,2-2,2h-2.7l0,0c-0.3-1,0.3-1.9,1.3-1.9
			c0.4,0,0.1,0,0.5,0c0.5,0,0.8-0.2,0.8-0.7l0.1-5v-2.2L94.9,10z"/>
		<path class="st0" d="M93.7,14.6h-6.1c-0.6,0-1-0.4-1-1v-1h7.1V14.6z"/>
	</g>
	<g id="撇">
		<path class="st0" d="M73.5,9.1c0.5-0.8,1-1.7,1.4-2.7c0.2-0.5,0-1-0.4-1.2l-0.7-0.4c-0.4,1-0.8,1.9-1.2,2.7
			c-0.2,0.4-0.1,0.9,0.3,1.2L73.5,9.1z"/>
		<path class="st0" d="M68,9l0.6-0.2c0.5-0.3,0.7-0.8,0.5-1.2C68.7,6.8,68.4,6,68,5.2l-0.5,0.1C67,5.5,66.7,6.1,67,6.6
			C67.3,7.3,67.7,8.1,68,9z"/>
		<path class="st0" d="M65.5,5.2c0-0.5-0.4-0.9-0.9-0.9h-0.9v3.4h-1.4v1c0,0.6,0.5,1,1,1h0.4v4.2c-0.3,0.1-0.5,0.2-0.8,0.3
			c-0.5,0.2-0.7,0.7-0.6,1.2l0.3,1.1l1.1-0.5v4.1c0,0.3-0.3,0.6-0.6,0.6c-0.5,0-0.8,0.5-0.8,1v0.8v0.1h1.4c1.2,0,1.8-0.7,1.8-1.9V15
			c0.2-0.1,0.4-0.3,0.6-0.4c0.3-0.2,0.4-0.5,0.4-0.8v-1.5c-0.4,0.3-0.7,0.5-1,0.7V9.7h1.1v-2h-1.1V5.2z"/>
		<path class="st0" d="M78.7,18c0.9-2.4,1.3-5.4,1.4-9h0.5V8.2c0-0.6-0.5-1-1-1h-2.1c0.1-0.6,0.2-1.3,0.3-1.9c0-0.4-0.3-0.9-0.8-1
			l-0.8-0.1c-0.3,3-0.7,5.5-1.4,7.5v-1.3c0-0.5-0.4-0.9-0.9-0.9h-2V5.3c0-0.6-0.5-1-1-1h-1v5.2h-2c-0.5,0-0.9,0.4-0.9,0.9v12h0.7
			c0.5,0,0.9-0.4,0.9-0.9v-2.9l0-0.4v-1.3V14v-2.8V11h1.7v11.2h1.2V11h1.6v6.9v1.8v0.5c0,0.2-0.3,0.4-0.6,0.5
			c-0.3,0.2-0.5,0.5-0.5,0.8l0.2,0.8h0.9c1.2,0,1.8-0.6,1.8-1.8v-7.3c0,0,0.7,1.5,1.1-0.1c0.2,1.7,0.5,3.3,1,4.7
			c-0.6,1.4-1.3,2.4-2.1,3.3l0.7,1.1c0.2,0.3,0.6,0.3,0.8,0.1c0.5-0.7,1-1.5,1.5-2.3c0.4,0.9,0.9,1.7,1.5,2.4c0.2,0.3,0.5,0.2,0.7,0
			l0.7-1C79.9,20.4,79.2,19.3,78.7,18z M77.7,16.1c-0.4-0.6-1.1-4.9-1.2-4.9c0.4-0.9,0.4-1.1,0.6-2.2h1.4
			C78.5,11.3,78.2,15.4,77.7,16.1z"/>
		<path class="st0" d="M73.5,10.6H68v8.2h0.6v-1.9h0.3c0.5,0,1,0.4,1,1c0,0,0,0.5,0,0.9h1.9v-1.9H72c0.5,0,1.1,0.4,1.1,1v0.9h0.4
			V10.6z M69.9,14.6h-0.7c-0.4,0-0.6-0.3-0.6-0.6v-2.8h0.3c0.5,0,1,0.4,1,1V14.6z M73,14.6h-0.6c-0.4,0-0.6-0.3-0.6-0.6v-2.8H72
			c0.5,0,1,0.4,1,1V14.6z"/>
		<polygon class="st0" points="69.9,6 69.9,12.2 69.9,14.6 69.9,22.2 71.8,22.2 71.8,6 		"/>
	</g>
	<g id="左">
		<path class="st0" d="M44.8,6.9C45,6,45.2,5.1,45.3,4.1l1.1,0.1c0.5,0.1,0.9,0.6,0.8,1.1c-0.1,0.5-0.2,1.1-0.3,1.6h7.9
			c0.5,0,1,0.4,1,1V9h-9.3c-0.4,1.4-0.8,2.7-1.3,3.9H54c0.5,0,1,0.4,1,1V15h-4.6v5.3h6.1v1.1c0,0.5-0.4,0.9-0.9,0.9H42v-1.1
			c0-0.5,0.4-0.9,0.9-0.9h5.3V15h-4.1c-1.1,2-2.3,3.6-3.8,5c-0.5,0.4-1.2,0.3-1.5-0.2l-0.5-0.9c2.7-2.4,4.7-5.6,5.9-9.8h-3.6
			c-0.5,0-0.9-0.4-0.9-0.9V6.9H44.8z"/>
	</g>
</g>
<rect x="26" y="4.3" class="st1" width="0.5" height="18"/>
<g id="logo">
	<polygon class="st2" points="6.5,26.6 0,22.9 0,0 6.5,3.8 	"/>
	<polygon class="st3" points="14.1,22.3 6.5,26.6 6.5,19.1 14.1,14.8 	"/>
</g>
</svg>
