<svg id="Layer_1" enable-background="new 0 0 90 90" height="512" viewBox="0 0 90 90" width="512" xmlns="http://www.w3.org/2000/svg"><g><path d="m35.168 79.61h19.656c.469 0 .881.406.881 1.068s-.412 1.068-.881 1.068h-19.656c-.469-.012-.881-.406-.881-1.068s.412-1.068.881-1.068zm8.834-13.937h1.994v11.865h-1.994zm24.75-22.854c.666 0 1.072.412 1.072.881v4.666c0 .463-.406.875-1.072.875-.662 0-1.063-.412-1.063-.875v-4.666c0-.469.401-.881 1.063-.881zm-47.506 0c.66 0 1.063.412 1.063.881v4.666c0 .463-.402.875-1.063.875-.667 0-1.072-.412-1.072-.875v-4.666c0-.469.405-.881 1.072-.881zm0-2.084c-1.709 0-3.146 1.303-3.146 2.965v4.666c0 1.662 1.438 2.938 3.1 2.959.563.004 1.088-.215 1.526-.359.932 3.42 3.348 6.629 6.38 9.182 3.734 3.146 8.432 5.334 12.822 5.51v11.881h-6.76c-1.666 0-2.964 1.438-2.964 3.141 0 1.697 1.298 3.141 2.964 3.141h19.656c1.666 0 2.969-1.443 2.969-3.141 0-1.703-1.303-3.141-2.969-3.141h-6.76v-11.882c4.389-.176 9.094-2.363 12.828-5.51 3.031-2.553 5.443-5.762 6.375-9.182.442.145.964.363 1.525.359 1.661-.021 3.1-1.297 3.1-2.959v-4.665c0-1.662-1.438-2.965-3.141-2.965s-3.135 1.303-3.135 2.965v4.281c0 3.598-2.48 7.557-6.063 10.576-3.58 3.018-8.211 5.033-12.053 5.033h-5.006c-3.844 0-8.475-2.016-12.052-5.033-3.584-3.02-6.063-6.979-6.063-10.576v-4.281c.002-1.662-1.43-2.965-3.133-2.965zm29.291-18.603c-1.385 0-1.385 2.078 0 2.078l9.074-.01v4.447l-9.078-.016c-1.391 0-1.391 2.084 0 2.084l9.078-.01s.01 4.447 0 4.447h-9.078c-1.479 0-1.479 2.07 0 2.07l9.078-.004v4.443h-9.078c-1.387 0-1.387 2.084 0 2.084l9.078-.006c0 7.969-6.256 13.781-14.609 13.781-8.36 0-14.621-5.813-14.621-13.781l9.078.006c1.385 0 1.385-2.084 0-2.084h-9.078v-4.441l9.078.004c1.485 0 1.485-2.07 0-2.07h-9.078c-.005 0 0-4.447 0-4.447l9.078.01c1.391 0 1.391-2.084 0-2.084l-9.078.016v-4.449l9.078.01c1.385 0 1.385-2.078 0-2.078l-9.078.006c0-8.037 6.256-13.787 14.615-13.787 8.365 0 14.621 5.656 14.621 13.787zm-5.541-15.938c-9.818 0-16.693 7.078-16.693 15.771v21.947c0 8.693 7.262 15.693 16.699 15.693 9.432-.006 16.688-7.006 16.688-15.693v-21.946c-.001-8.694-6.876-15.772-16.694-15.772z"/></g></svg>