<?xml version="1.0" encoding="utf-8"?>
<!-- Generator: Adobe Illustrator 25.2.1, SVG Export Plug-In . SVG Version: 6.00 Build 0)  -->
<svg version="1.1" id="Layer_1" xmlns="http://www.w3.org/2000/svg" xmlns:xlink="http://www.w3.org/1999/xlink" x="0px" y="0px"
	 viewBox="0 0 512 512" style="enable-background:new 0 0 512 512;" xml:space="preserve">
<path id="Search" d="M464.7,443.3L354.4,332.9c24.2-29,38.8-66.3,38.8-106.9c0-92.2-75-167.2-167.2-167.2S58.8,133.8,58.8,226
	s75,167.2,167.2,167.2c40.6,0,77.9-14.6,106.9-38.8l110.3,110.3c3,3,6.9,4.5,10.7,4.5c3.9,0,7.8-1.5,10.7-4.5
	C470.7,458.8,470.7,449.2,464.7,443.3L464.7,443.3z M89.2,226c0-75.4,61.4-136.8,136.8-136.8S362.8,150.6,362.8,226
	S301.4,362.8,226,362.8S89.2,301.4,89.2,226L89.2,226z"/>
</svg>
