<svg id="Layer_2" enable-background="new 0 0 64 64" height="512" viewBox="0 0 64 64" width="512" xmlns="http://www.w3.org/2000/svg"><g><g><path d="m54.006 58.969c-1.288 0-2.577-.48-3.535-1.438-.391-.391-.391-1.023 0-1.414s1.023-.391 1.414 0c1.114 1.113 3.131 1.111 4.243 0 1.149-1.15 1.149-3.094 0-4.242-.391-.391-.391-1.023 0-1.414s1.023-.391 1.414 0c1.916 1.916 1.916 5.154 0 7.07-.958.957-2.247 1.438-3.536 1.438z"/></g><g><path d="m51.178 57.824c-.256 0-.512-.098-.707-.293l-7.071-7.07c-.391-.391-.391-1.023 0-1.414s1.023-.391 1.414 0l7.071 7.07c.391.391.391 1.023 0 1.414-.196.196-.451.293-.707.293z"/></g><g><path d="m56.835 52.168c-.256 0-.512-.098-.707-.293l-7.071-7.072c-.391-.391-.391-1.023 0-1.414s1.023-.391 1.414 0l7.071 7.072c.391.391.391 1.023 0 1.414-.195.195-.451.293-.707.293z"/></g><g><path d="m44.106 47.924c-.256 0-.512-.098-.707-.293-.391-.391-.391-1.023 0-1.414l2.829-2.828c.391-.391 1.023-.391 1.414 0s.391 1.023 0 1.414l-2.829 2.828c-.195.195-.451.293-.707.293z"/></g><g><path d="m49.764 45.096c-.256 0-.512-.098-.707-.293-.38-.377-1.037-.379-1.413 0-.391.391-1.024.391-1.415.002-.391-.391-.391-1.023-.001-1.416 1.132-1.131 3.109-1.133 4.243 0 .391.391.391 1.023 0 1.414-.196.195-.451.293-.707.293z"/></g><g><path d="m44.106 50.754c-.256 0-.513-.098-.708-.293-1.168-1.17-1.168-3.074 0-4.244.391-.391 1.024-.389 1.415 0 .391.391.391 1.023.001 1.414-.391.391-.391 1.025 0 1.416.39.391.39 1.023-.001 1.414-.195.195-.451.293-.707.293z"/></g><g><path d="m26.084 40.982c-4.729 0-9.234-2.225-12.051-5.949-2.888-3.82-3.72-8.705-2.281-13.402 1.44-4.701 4.868-8.285 9.405-9.834 1.531-.523 3.121-.789 4.725-.789 8.198 0 15.124 6.863 15.124 14.988 0 6.318-4.175 12.158-10.151 14.199-1.532.522-3.137.787-4.771.787zm-.202-27.974c-1.384 0-2.756.23-4.078.682-3.923 1.34-6.89 4.447-8.14 8.527-1.248 4.076-.532 8.309 1.965 11.609 2.44 3.229 6.349 5.156 10.455 5.156 1.413 0 2.801-.229 4.124-.68 5.18-1.77 8.798-6.83 8.798-12.307 0-7.04-6.01-12.987-13.124-12.987z"/></g><g><path d="m42.906 38.238c-.256 0-.512-.098-.707-.293l-.215-.215c-.391-.391-.391-1.023 0-1.414s1.023-.391 1.414 0l.215.215c.391.391.391 1.023 0 1.414-.195.196-.451.293-.707.293z"/></g><g><path d="m43.039 40.918c-.223 0-.446-.074-.632-.225-.428-.352-.491-.98-.142-1.408.327-.398.298-.975-.066-1.34-.391-.391-.391-1.023 0-1.414s1.023-.391 1.414 0c1.095 1.094 1.181 2.822.201 4.02-.198.242-.485.367-.775.367z"/></g><g><path d="m39.93 44.029c-.29 0-.577-.125-.775-.367-.35-.428-.286-1.057.142-1.406 1.084-.887 2.084-1.887 2.97-2.971.351-.428.979-.49 1.407-.141s.491.979.142 1.406c-.971 1.188-2.065 2.283-3.253 3.254-.187.151-.412.225-.633.225z"/></g><g><path d="m37.249 43.895c-.256 0-.512-.098-.707-.293l-.215-.215c-.391-.391-.391-1.023 0-1.414s1.023-.391 1.414 0l.215.215c.391.391.391 1.023 0 1.414-.195.195-.451.293-.707.293z"/></g><g><path d="m38.663 44.484c-.77 0-1.536-.297-2.121-.883-.391-.391-.391-1.023 0-1.414s1.023-.391 1.414 0c.364.365.94.393 1.34.068.427-.352 1.06-.287 1.407.141.35.428.286 1.059-.142 1.408-.557.456-1.229.68-1.898.68z"/></g><g><path d="m26.118 46.982c-8.76 0-17.003-5.574-19.954-14.107-3.214-9.287.538-19.727 8.921-24.822 8.355-5.076 19.331-3.639 26.098 3.422 6.72 7.01 7.705 17.988 2.343 26.102-.305.459-.926.586-1.386.281s-.587-.924-.282-1.385c4.852-7.342 3.961-17.271-2.118-23.613-6.124-6.389-16.057-7.691-23.615-3.098-7.585 4.609-10.979 14.054-8.07 22.459 3.151 9.111 12.967 14.494 22.359 12.258 2.165-.516 4.207-1.402 6.068-2.633.46-.305 1.08-.178 1.386.283.305.461.178 1.08-.282 1.385-2.059 1.361-4.315 2.34-6.709 2.91-1.584.377-3.18.558-4.759.558z"/></g><g><path d="m44.106 47.924c-.256 0-.512-.098-.707-.293l-4.022-4.021c-.391-.391-.391-1.023 0-1.414s1.023-.391 1.414 0l4.022 4.021c.391.391.391 1.023 0 1.414-.195.195-.451.293-.707.293z"/></g><g><path d="m46.936 45.096c-.256 0-.512-.098-.707-.293l-4.023-4.021c-.391-.391-.391-1.023 0-1.414s1.023-.391 1.414 0l4.023 4.021c.391.391.391 1.023 0 1.414-.196.195-.452.293-.707.293z"/></g></g></svg>