<svg id="Capa_1" enable-background="new 0 0 512.001 512.001" height="512" viewBox="0 0 512.001 512.001" width="512" xmlns="http://www.w3.org/2000/svg"><g><path d="m67.486 30.007c-4.131 0-7.48 3.368-7.48 7.522s3.349 7.522 7.48 7.522 7.48-3.368 7.48-7.522c-.001-4.154-3.35-7.522-7.48-7.522zm30 0c-4.131 0-7.48 3.368-7.48 7.522s3.349 7.522 7.48 7.522 7.48-3.368 7.48-7.522c-.001-4.154-3.35-7.522-7.48-7.522zm292.39 289.225c17.397 4.661 35.652 2.228 51.387-6.935 32.152-18.724 43.444-59.928 25.172-91.851-8.78-15.339-23.062-26.317-40.213-30.913-17.436-4.673-35.686-2.209-51.388 6.935-32.152 18.724-43.444 59.928-25.171 91.851 8.779 15.339 23.061 26.317 40.213 30.913zm-7.494-109.802c12.235-7.125 26.44-9.03 39.957-5.408 13.262 3.553 24.298 12.033 31.077 23.875 14.194 24.799 5.356 56.845-19.702 71.438-12.22 7.117-26.41 9.038-39.956 5.408-13.262-3.553-24.299-12.033-31.078-23.876-14.194-24.798-5.356-56.845 19.702-71.437zm-126.864-4.544c14.245 0 25.833-11.731 25.833-26.152s-11.589-26.152-25.833-26.152h-64.902c-14.245 0-25.834 11.731-25.834 26.152v67.982c0 4.142 3.358 7.5 7.5 7.5s7.5-3.358 7.5-7.5v-67.982c0-6.149 4.86-11.152 10.834-11.152h64.902c5.974 0 10.833 5.003 10.833 11.152s-4.86 11.152-10.833 11.152h-46.568c-4.142 0-7.5 3.358-7.5 7.5v41.048c0 4.142 3.358 7.5 7.5 7.5h41.783c5.974 0 10.833 5.003 10.833 11.152s-4.86 11.152-10.833 11.152h-41.783c-4.142 0-7.5 3.358-7.5 7.5v41.047c0 4.142 3.358 7.5 7.5 7.5h46.568c5.974 0 10.833 5.003 10.833 11.152s-4.86 11.152-10.833 11.152h-64.902c-5.974 0-10.834-5.003-10.834-11.152v-53.72c0-4.142-3.358-7.5-7.5-7.5s-7.5 3.358-7.5 7.5v53.72c0 14.42 11.589 26.152 25.834 26.152h64.902c14.245 0 25.833-11.731 25.833-26.152s-11.589-26.152-25.833-26.152h-39.068v-26.047h34.283c14.245 0 25.833-11.731 25.833-26.152 0-14.42-11.589-26.152-25.833-26.152h-34.283v-26.048zm218.988 150.941c-4.142 0-7.5 3.358-7.5 7.5v68.73c0 11-8.95 19.95-19.95 19.95h-109.144l30.846-53.428c2.741-4.747 3.469-10.278 2.05-15.573-.743-2.774-2.041-5.3-3.78-7.48l12.087-20.937c.247.068.492.142.74.208 26.937 7.213 55.216 3.445 79.584-10.745 49.813-29.008 67.319-92.825 39.024-142.258-13.583-23.73-35.68-40.716-62.221-47.827-27.001-7.234-55.263-3.418-79.585 10.746-49.812 29.008-67.318 92.824-39.024 142.257 4.85 8.472 10.79 16.079 17.624 22.69l-11.925 20.655c-8.096-1.209-16.492 2.506-20.827 10.014l-52.93 91.678h-184.619c-11 0-19.95-8.95-19.95-19.95v-73.864c8.406 2.222 17.091 3.396 25.72 3.396 17.201 0 33.854-5.578 46.892-15.707 13.276-10.313 22.094-24.57 24.828-40.146 3.238-18.451-2.912-37.892-16.45-52.003-10.829-11.287-25.989-19.586-45.061-24.667-8.918-2.376-18.23-4.46-25.032-9.535-2.775-2.071-4.454-5.37-3.903-7.674.873-3.65 6.447-7.169 10.904-8.045 8.757-1.72 18.051 1.668 22.813 3.841 10.572 4.822 23.122 1.938 30.518-7.015 5.244-6.347 7.192-14.607 5.344-22.664-1.84-8.02-7.154-14.568-14.58-17.967-14.472-6.625-36.909-12.899-61.993-5.527v-79.451h133.426c14.061 0 25.5-11.439 25.5-25.5v-24.022c0-5.79 4.71-10.5 10.5-10.5h83.148c5.79 0 10.5 4.71 10.5 10.5v24.022c0 14.061 11.439 25.5 25.5 25.5h133.426v68.417c0 4.142 3.358 7.5 7.5 7.5s7.5-3.358 7.5-7.5v-108.489c0-19.271-15.679-34.95-34.95-34.95h-382.1c-19.271 0-34.95 15.679-34.95 34.95v126.221c-14.784 9.19-25.611 24.596-28.965 42.261-3.903 20.567 3.307 40.601 19.287 53.589 3.148 2.558 6.389 4.792 9.678 6.793v34.496c-6.205.292-12.256 2.77-16.927 7.332-5.766 5.63-8.581 13.459-7.724 21.48.847 7.925 5.185 14.888 11.9 19.103 4.057 2.547 8.329 4.794 12.751 6.735v79.089c0 19.271 15.679 34.95 34.95 34.95h178.564c-.982 5.464-.757 11.123.722 16.644 2.645 9.87 8.974 18.118 17.822 23.226 6.009 3.469 12.575 5.118 19.061 5.117 13.229-.001 26.113-6.861 33.19-19.118l14.936-25.87h117.804c19.271 0 34.95-15.679 34.95-34.95v-68.73c.001-4.14-3.357-7.498-7.499-7.498zm-27.45-340.82c11 0 19.95 8.95 19.95 19.95v25.072h-133.426c-5.79 0-10.5-4.71-10.5-10.5v-24.022c0-3.742-.817-7.295-2.271-10.5zm-402.05 19.95c0-11 8.95-19.95 19.95-19.95h126.247c-1.454 3.205-2.271 6.758-2.271 10.5v24.022c0 5.79-4.71 10.5-10.5 10.5h-133.426zm-19.776 298.571c-2.797-1.756-4.604-4.669-4.96-7.993-.365-3.42.833-6.756 3.289-9.154 2.097-2.048 4.863-3.104 7.677-3.104 2.041 0 4.107.556 5.962 1.691 9.813 6.008 21.72 9.317 33.527 9.317 20.276 0 33.487-12.935 35.623-25.105 2.239-12.758-7.177-24.091-25.833-31.092-3.75-1.407-7.6-2.684-11.727-4.054-12.717-4.218-27.13-9-39-18.645-11.631-9.454-16.869-24.09-14.01-39.152 3.321-17.497 16.16-32.079 32.709-37.15 20.947-6.418 39.987-1.062 52.269 4.559 3.153 1.443 5.414 4.244 6.203 7.683.797 3.476-.037 7.031-2.287 9.756-3.133 3.791-8.249 4.966-12.729 2.921-6.4-2.919-19.06-7.44-31.928-4.912-9.383 1.842-20.161 9.056-22.603 19.277-1.951 8.162 1.875 17.479 9.522 23.184 9.308 6.944 19.826 9.258 30.139 12.006 16.38 4.364 29.198 11.281 38.098 20.558 10.242 10.675 14.915 25.265 12.5 39.025-2.088 11.899-8.927 22.87-19.255 30.894-10.419 8.094-23.805 12.552-37.69 12.552-15.923-.001-32.08-4.639-45.496-13.062zm19.776-31.367v-30.778c6.515 2.726 12.986 4.873 19.11 6.905 3.935 1.305 7.651 2.539 11.129 3.844 8.165 3.064 17.341 8.688 16.329 14.455-.898 5.121-8.146 12.698-20.848 12.698-9.082 0-18.207-2.525-25.695-7.109-.008-.006-.017-.01-.025-.015zm285.646-2.642c-24.217-42.309-9.165-96.967 33.554-121.844 20.841-12.136 45.045-15.41 68.154-9.219 22.65 6.069 41.503 20.555 53.084 40.789 24.217 42.309 9.165 96.968-33.554 121.845-20.84 12.136-45.044 15.41-68.153 9.218-12.657-3.391-24.125-9.416-33.805-17.598-.157-.148-.322-.289-.493-.425-7.429-6.377-13.788-14.032-18.787-22.766zm34.096 49.956-9.998 17.319-17.708-10.223 9.923-17.188c5.541 3.932 11.49 7.314 17.783 10.092zm-46.352 106.333c-.031.055-.064.107-.094.163l-16.977 29.406c-6.41 11.102-20.658 14.92-31.761 8.51-5.378-3.105-9.226-8.119-10.833-14.118s-.783-12.265 2.323-17.643l54.442-94.297c1.022-1.77 2.882-2.76 4.792-2.76.936 0 1.885.238 2.752.739l.145.084c.015.008.03.018.045.026l30.516 17.618c1.277.738 2.191 1.929 2.573 3.354s.186 2.913-.552 4.19zm-190.91-425.801c-4.131 0-7.48 3.368-7.48 7.522s3.349 7.522 7.48 7.522 7.48-3.368 7.48-7.522c-.001-4.154-3.35-7.522-7.48-7.522z"/></g></svg>