<svg enable-background="new 0 0 520 520" height="512" viewBox="0 0 520 520" width="512" xmlns="http://www.w3.org/2000/svg"><g id="_x32_5"><g id="XMLID_31_"><g id="XMLID_35_"><path id="XMLID_147_" d="m219.853 479.852c-2.559 0-5.119-.977-7.071-2.929l-169.706-169.704c-1.875-1.876-2.929-4.419-2.929-7.071s1.054-5.195 2.929-7.071l250-250c2.099-2.098 5.023-3.153 7.977-2.888l155.563 14.141c4.808.437 8.617 4.246 9.054 9.054l14.143 155.563c.269 2.956-.79 5.878-2.888 7.977l-250 250c-1.953 1.952-4.513 2.928-7.072 2.928zm-155.564-179.705 155.564 155.563 239.617-239.616-12.964-142.6-142.6-12.964z"/></g><g id="XMLID_34_"><path id="XMLID_144_" d="m392.071 157.914c-7.682 0-15.364-2.924-21.213-8.772-11.697-11.697-11.697-30.73 0-42.427 11.697-11.696 30.73-11.697 42.427 0s11.697 30.73 0 42.427c-5.849 5.849-13.532 8.772-21.214 8.772zm0-39.985c-2.671 0-5.182 1.04-7.071 2.929-3.899 3.899-3.899 10.243 0 14.143 3.898 3.899 10.243 3.898 14.143 0 1.889-1.889 2.929-4.4 2.929-7.071s-1.04-5.183-2.929-7.071c-1.89-1.89-4.401-2.93-7.072-2.93z"/></g><g id="XMLID_33_"><path id="XMLID_143_" d="m241.341 398.334c-2.559 0-5.119-.977-7.071-2.929l-105.745-105.745c-3.905-3.905-3.905-10.237 0-14.143 3.906-3.903 10.237-3.903 14.143 0l105.745 105.745c3.905 3.905 3.905 10.237 0 14.143-1.953 1.952-4.513 2.929-7.072 2.929z"/></g><g id="XMLID_32_"><path id="XMLID_142_" d="m282.341 357.334c-2.559 0-5.119-.977-7.071-2.929l-105.745-105.744c-3.905-3.905-3.905-10.237 0-14.143 3.905-3.905 10.237-3.905 14.143 0l105.745 105.745c3.905 3.905 3.905 10.237 0 14.143-1.953 1.951-4.513 2.928-7.072 2.928z"/></g></g></g></svg>