<?xml version="1.0"?>
<svg xmlns="http://www.w3.org/2000/svg" id="Layer_1" enable-background="new 0 0 512 512" height="512px" viewBox="0 0 512 512" width="512px"><g><g><path d="m411.648 0h-311.296c-18.907 0-34.289 15.382-34.289 34.289v312.335c0 18.907 15.382 34.289 34.289 34.289h28.737c4.142 0 7.5-3.357 7.5-7.5s-3.358-7.5-7.5-7.5h-28.737c-10.636 0-19.289-8.653-19.289-19.289v-312.335c0-10.636 8.653-19.289 19.289-19.289h311.296c10.636 0 19.289 8.653 19.289 19.289v312.335c0 10.636-8.653 19.289-19.289 19.289h-90.214c-16.077-18.004-39.454-29.356-65.434-29.356s-49.357 11.352-65.434 29.356h-26.865c-4.142 0-7.5 3.357-7.5 7.5s3.358 7.5 7.5 7.5h16.065c-7.308 12.798-11.488 27.602-11.488 43.365 0 48.37 39.352 87.722 87.722 87.722 34.092 0 65.364-20.004 79.669-50.962 1.738-3.761.098-8.217-3.662-9.955-3.76-1.737-8.217-.098-9.954 3.662-11.861 25.669-37.789 42.255-66.053 42.255-40.099 0-72.722-32.623-72.722-72.722s32.623-72.722 72.722-72.722 72.722 32.623 72.722 72.722c0 4.143 3.358 7.5 7.5 7.5s7.5-3.357 7.5-7.5c0-15.763-4.179-30.568-11.488-43.365h79.414c18.907 0 34.289-15.382 34.289-34.289v-312.335c0-18.907-15.382-34.289-34.289-34.289z" data-original="#000000" class="active-path" data-old_color="#000000" fill="#FFFFFF"/><path d="m408.459 76.498c4.142 0 7.5-3.357 7.5-7.5v-31.435c0-4.143-3.358-7.5-7.5-7.5h-304.918c-4.142 0-7.5 3.357-7.5 7.5v260.694c0 4.143 3.358 7.5 7.5 7.5h304.919c4.142 0 7.5-3.357 7.5-7.5v-194.564c0-4.143-3.358-7.5-7.5-7.5s-7.5 3.357-7.5 7.5v131.699l-65.091-65.091c-1.406-1.406-3.314-2.196-5.303-2.196s-3.897.79-5.303 2.196l-43.939 43.94-67.709-67.71c-1.406-1.406-3.314-2.196-5.303-2.196s-3.897.79-5.303 2.196l-63.438 63.438h-28.529v-164.906h289.919v23.936c-.002 4.142 3.356 7.499 7.498 7.499zm-265.783 148.472c1.989 0 3.897-.79 5.303-2.196l60.331-60.332 67.709 67.71c1.406 1.406 3.314 2.196 5.303 2.196s3.897-.79 5.303-2.196l43.939-43.94 70.394 70.395v34.151h-289.917v-65.788z" data-original="#000000" class="active-path" data-old_color="#000000" fill="#FFFFFF"/><path d="m241.177 113.565c0 21.735 17.683 39.419 39.418 39.419 21.736 0 39.419-17.684 39.419-39.419s-17.683-39.419-39.419-39.419c-21.735 0-39.418 17.684-39.418 39.419zm63.838 0c0 13.465-10.954 24.419-24.419 24.419-13.464 0-24.418-10.954-24.418-24.419s10.954-24.419 24.418-24.419c13.465 0 24.419 10.955 24.419 24.419z" data-original="#000000" class="active-path" data-old_color="#000000" fill="#FFFFFF"/><path d="m256 470.874c4.142 0 7.5-3.357 7.5-7.5v-60.085l21.341 21.342c1.464 1.464 3.384 2.196 5.303 2.196s3.839-.732 5.303-2.196c2.929-2.93 2.929-7.678 0-10.607l-34.145-34.145c-2.929-2.928-7.678-2.928-10.606 0l-34.145 34.145c-2.929 2.93-2.929 7.678 0 10.607 2.929 2.928 7.678 2.928 10.606 0l21.341-21.342v60.085c.002 4.143 3.36 7.5 7.502 7.5z" data-original="#000000" class="active-path" data-old_color="#000000" fill="#FFFFFF"/></g></g> </svg>
