<svg height="512" viewBox="0 0 60 60" width="512" xmlns="http://www.w3.org/2000/svg"><g id="004---Social-Ad-Reach" fill="none"><circle id="Oval" cx="51" cy="9" fill="#49aeda" r="8"/><circle id="Oval" cx="51" cy="30" fill="#49aeda" r="8"/><circle id="Oval" cx="51" cy="51" fill="#49aeda" r="8"/><path id="Path" d="m15 37h-7c-3.86599325 0-7-3.1340068-7-7 0-3.8659932 3.13400675-7 7-7h7z" fill="#ffb96e"/><path id="Path" d="m8 37v7c0 1.6568542 1.34314575 3 3 3 1.6568542 0 3-1.3431458 3-3v-7z" fill="#d9dde3"/><path id="Path" d="m14 23 12-5h2v24h-2l-12-5z" fill="#d9dde3"/><rect id="Rectangle" fill="#ffb96e" height="34" rx="3" width="6" x="26" y="13"/><g fill="#f1f3f5"><circle id="Oval" cx="51" cy="7" r="2"/><circle id="Oval" cx="51" cy="28" r="2"/><circle id="Oval" cx="51" cy="49" r="2"/><path id="Path" d="m54.87 16h-.01c-2.4006317 1.333295-5.3193683 1.333295-7.72 0h-.01c.4601182-1.7604403 2.0504234-2.9885159 3.87-2.9885159s3.4098818 1.2280756 3.87 2.9885159z"/><path id="Path" d="m54.87 37h-.01c-2.4006317 1.333295-5.3193683 1.333295-7.72 0h-.01c.4601182-1.7604403 2.0504234-2.9885159 3.87-2.9885159s3.4098818 1.2280756 3.87 2.9885159z"/><path id="Path" d="m54.87 58h-.01c-2.4006317 1.333295-5.3193683 1.333295-7.72 0h-.01c.4601182-1.7604403 2.0504234-2.9885159 3.87-2.9885159s3.4098818 1.2280756 3.87 2.9885159z"/></g><path id="Shape" d="m51 10c1.6568542 0 3-1.34314575 3-3s-1.3431458-3-3-3-3 1.34314575-3 3 1.3431458 3 3 3zm0-4c.5522847 0 1 .44771525 1 1s-.4477153 1-1 1-1-.44771525-1-1 .4477153-1 1-1z" fill="#373737"/><path id="Shape" d="m51 31c1.6568542 0 3-1.3431458 3-3s-1.3431458-3-3-3-3 1.3431458-3 3 1.3431458 3 3 3zm0-4c.5522847 0 1 .4477153 1 1s-.4477153 1-1 1-1-.4477153-1-1 .4477153-1 1-1z" fill="#373737"/><path id="Shape" d="m51 52c1.6568542 0 3-1.3431458 3-3s-1.3431458-3-3-3-3 1.3431458-3 3 1.3431458 3 3 3zm0-4c.5522847 0 1 .4477153 1 1s-.4477153 1-1 1-1-.4477153-1-1 .4477153-1 1-1z" fill="#373737"/><path id="Shape" d="m39 10h3.059c.5306673 4.7464325 4.6764411 8.2518025 9.4450477 7.9860572 4.7686066-.2657454 8.4992242-4.2100516 8.4992242-8.9860572 0-4.77600561-3.7306176-8.72031184-8.4992242-8.98605718s-8.9143804 3.23962464-9.4450477 7.98605718h-3.059c-1.6568542 0-3 1.34314575-3 3v18h-3v-13c0-2.209139-1.790861-4-4-4s-4 1.790861-4 4v1.333l-11.2 4.667h-5.8c-4.418278 0-8 3.581722-8 8s3.581722 8 8 8h5v6c0 1.1045695-.8954305 2-2 2s-2-.8954305-2-2v-3c0-.5522847-.44771525-1-1-1s-1 .4477153-1 1v3c0 2.209139 1.790861 4 4 4s4-1.790861 4-4v-5.5l10 4.167v1.333c0 2.209139 1.790861 4 4 4s4-1.790861 4-4v-13h3v18c0 1.6568542 1.3431458 3 3 3h3.059c.5306673 4.7464325 4.6764411 8.2518025 9.4450477 7.9860572 4.7686066-.2657454 8.4992242-4.2100516 8.4992242-8.9860572s-3.7306176-8.7203118-8.4992242-8.9860572c-4.7686066-.2657453-8.9143804 3.2396247-9.4450477 7.9860572h-3.059c-.5522847 0-1-.4477153-1-1v-18h4.059c.5306673 4.7464325 4.6764411 8.2518025 9.4450477 7.9860572 4.7686066-.2657454 8.4992242-4.2100516 8.4992242-8.9860572s-3.7306176-8.7203118-8.4992242-8.9860572c-4.7686066-.2657453-8.9143804 3.2396247-9.4450477 7.9860572h-4.059v-18c0-.5522847.4477153-1 1-1zm9.413 5.5c.5318991-.9265107 1.5186654-1.4978333 2.587-1.4978333s2.0551009.5713226 2.587 1.4978333c-1.6597275.6693235-3.5142725.6693235-5.174 0zm2.587-13.5c2.9847887-.00257508 5.642098 1.8898609 6.6156473 4.71141581.9735493 2.8215549.0486442 5.94999819-2.3026473 7.78858419-.8846337-1.5474794-2.5305103-2.502426-4.313-2.502426s-3.4283663.9549466-4.313 2.502426c-2.3512915-1.838586-3.2761966-4.96702929-2.3026473-7.78858419.9735493-2.82155491 3.6308586-4.71399089 6.6156473-4.71141581zm-49 28c.00330738-3.3123376 2.68766243-5.9966926 6-6h5v12h-5c-3.31233757-.0033074-5.99669262-2.6876624-6-6zm13 6.333v-12.666l10-4.167v21zm16 7.667c0 1.1045695-.8954305 2-2 2s-2-.8954305-2-2v-28c0-1.1045695.8954305-2 2-2s2 .8954305 2 2zm17.413 13.5c.5318991-.9265107 1.5186654-1.4978333 2.587-1.4978333s2.0551009.5713226 2.587 1.4978333c-1.6597275.6693235-3.5142725.6693235-5.174 0zm2.587-13.5c2.9849726-.0030027 5.6426744 1.8892829 6.6164855 4.7109424.9738111 2.8216594.0489515 5.9503586-2.3024855 7.7890576-.8856003-1.5468359-2.5315889-2.5011326-4.314-2.5011326s-3.4283997.9542967-4.314 2.5011326c-2.351437-1.838699-3.2762966-4.9673982-2.3024855-7.7890576.9738111-2.8216595 3.6315129-4.7139451 6.6164855-4.7109424zm-2.587-7.5c.5318991-.9265107 1.5186654-1.4978333 2.587-1.4978333s2.0551009.5713226 2.587 1.4978333c-1.6597275.6693235-3.5142725.6693235-5.174 0zm2.587-13.5c2.9849726-.0030027 5.6426744 1.8892829 6.6164855 4.7109424.9738111 2.8216594.0489515 5.9503586-2.3024855 7.7890576-.8856003-1.5468359-2.5315889-2.5011326-4.314-2.5011326s-3.4283997.9542967-4.314 2.5011326c-2.351437-1.838699-3.2762966-4.9673982-2.3024855-7.7890576.9738111-2.8216595 3.6315129-4.7139451 6.6164855-4.7109424z" fill="#373737"/></g></svg>