<?xml version="1.0" encoding="iso-8859-1"?>
<!-- Generator: Adobe Illustrator 19.0.0, SVG Export Plug-In . SVG Version: 6.00 Build 0)  -->
<svg version="1.1" id="Capa_1" xmlns="http://www.w3.org/2000/svg" xmlns:xlink="http://www.w3.org/1999/xlink" x="0px" y="0px"
	 viewBox="0 0 501.508 501.508" style="enable-background:new 0 0 501.508 501.508;" xml:space="preserve">
<circle style="fill:#2BF9C3;" cx="228.544" cy="273.078" r="222.523"/>
<path id="SVGCleanerId_0" style="fill:#32A2C9;" d="M228.544,84.819c-117.366,0-213.071,90.585-221.735,205.588
	c8.665,115.003,104.763,205.588,221.735,205.588S441.615,405.41,450.28,290.407C441.615,175.404,345.517,84.819,228.544,84.819z"/>
<circle style="fill:#FFFFFF;" cx="228.544" cy="273.078" r="173.292"/>
<path id="SVGCleanerId_1" style="fill:#D6E5E3;" d="M230.907,99.785c95.705,1.181,172.505,79.951,171.323,175.655
	S322.28,447.945,226.575,446.764"/>
<path id="SVGCleanerId_2" style="fill:#33363A;" d="M228.544,452.671c-98.855,0-179.2-80.345-179.2-179.2s80.345-179.2,179.2-179.2
	s179.2,80.345,179.2,179.2C407.744,372.327,327.4,452.671,228.544,452.671z M228.544,105.693
	c-92.554,0-167.385,75.225-167.385,167.385c0,92.554,75.225,167.385,167.385,167.385c92.554,0,167.385-75.225,167.385-167.385
	S320.704,105.693,228.544,105.693z"/>
<path id="SVGCleanerId_3" style="fill:#33363A;" d="M228.544,501.508c-126.031,0-228.431-102.4-228.431-228.431
	s102.4-228.431,228.431-228.431s228.431,102.4,228.431,228.431C456.975,399.108,354.575,501.508,228.544,501.508z M228.544,56.462
	c-119.335,0-216.615,97.28-216.615,216.615s97.28,216.615,216.615,216.615s216.615-97.28,216.615-216.615
	C445.16,153.742,347.88,56.462,228.544,56.462z"/>
<circle style="fill:#2BF9C3;" cx="228.544" cy="273.078" r="222.523"/>
<g>
	<path id="SVGCleanerId_0_1_" style="fill:#32A2C9;" d="M228.544,84.819c-117.366,0-213.071,90.585-221.735,205.588
		c8.665,115.003,104.763,205.588,221.735,205.588S441.615,405.41,450.28,290.407C441.615,175.404,345.517,84.819,228.544,84.819z"/>
</g>
<circle style="fill:#FFFFFF;" cx="228.544" cy="273.078" r="173.292"/>
<g>
	<path id="SVGCleanerId_1_1_" style="fill:#D6E5E3;" d="M230.907,99.785c95.705,1.181,172.505,79.951,171.323,175.655
		S322.28,447.945,226.575,446.764"/>
</g>
<g>
	<path id="SVGCleanerId_2_1_" style="fill:#33363A;" d="M228.544,452.671c-98.855,0-179.2-80.345-179.2-179.2
		s80.345-179.2,179.2-179.2s179.2,80.345,179.2,179.2C407.744,372.327,327.4,452.671,228.544,452.671z M228.544,105.693
		c-92.554,0-167.385,75.225-167.385,167.385c0,92.554,75.225,167.385,167.385,167.385c92.554,0,167.385-75.225,167.385-167.385
		S320.704,105.693,228.544,105.693z"/>
</g>
<g>
	<path id="SVGCleanerId_3_1_" style="fill:#33363A;" d="M228.544,501.508c-126.031,0-228.431-102.4-228.431-228.431
		s102.4-228.431,228.431-228.431s228.431,102.4,228.431,228.431C456.975,399.108,354.575,501.508,228.544,501.508z M228.544,56.462
		c-119.335,0-216.615,97.28-216.615,216.615s97.28,216.615,216.615,216.615s216.615-97.28,216.615-216.615
		C445.16,153.742,347.88,56.462,228.544,56.462z"/>
</g>
<circle style="fill:#2BF9C3;" cx="228.544" cy="273.078" r="123.668"/>
<path style="fill:#32A2C9;" d="M228.544,168.314c-64.985,0-118.548,50.412-123.274,114.215
	c4.726,63.803,58.289,114.215,123.274,114.215s118.548-50.412,123.274-114.215C347.092,218.727,293.529,168.314,228.544,168.314z"/>
<circle style="fill:#FFFFFF;" cx="228.544" cy="273.078" r="69.317"/>
<path style="fill:#D6E5E3;" d="M229.332,203.761c38.203,0.394,68.923,31.902,68.529,70.105
	c-0.394,38.203-31.902,68.923-70.105,68.529"/>
<path style="fill:#33363A;" d="M228.544,348.302c-41.354,0-75.225-33.871-75.225-75.225s33.871-75.225,75.225-75.225
	s75.225,33.871,75.225,75.225C303.769,314.825,269.898,348.302,228.544,348.302z M228.544,209.668
	c-35.052,0-63.409,28.357-63.409,63.409s28.357,63.409,63.409,63.409c35.052,0,63.409-28.357,63.409-63.409
	C291.954,238.419,263.597,209.668,228.544,209.668z"/>
<circle style="fill:#2BF9C3;" cx="228.544" cy="273.078" r="18.905"/>
<path style="fill:#32A2C9;" d="M228.938,254.173c10.634,0,18.905,8.665,18.905,19.298c0,10.634-8.665,18.905-19.298,18.905"/>
<g>
	<path style="fill:#33363A;" d="M228.544,298.284c-13.785,0-25.206-11.028-25.206-25.206c0-13.785,11.028-24.812,25.206-24.812
		c14.178,0,25.206,11.028,25.206,24.812C253.357,286.862,242.329,298.284,228.544,298.284z M228.544,260.081
		c-7.089,0-13.391,5.908-13.391,12.997c0,7.089,5.908,13.391,13.391,13.391c7.483,0,13.391-5.908,13.391-13.391
		C241.541,265.988,235.633,260.081,228.544,260.081z"/>
	<path style="fill:#33363A;" d="M228.544,402.653c-71.286,0-129.575-58.289-129.575-129.575s58.289-129.575,129.575-129.575
		S358.12,201.791,358.12,273.078C358.12,344.757,299.83,402.653,228.544,402.653z M228.544,155.318
		c-64.985,0-117.76,52.775-117.76,117.76s52.775,117.76,117.76,117.76s117.76-52.775,117.76-117.76
		C346.304,208.487,293.529,155.318,228.544,155.318z"/>
	<path style="fill:#33363A;" d="M228.15,278.985c-1.575,0-3.151-0.394-4.332-1.575c-2.363-2.363-2.363-5.908,0-8.271
		l137.846-137.846c2.363-2.363,5.908-2.363,8.271,0s2.363,5.908,0,8.271L232.089,277.41
		C231.301,278.591,229.726,278.985,228.15,278.985z"/>
</g>
<g>
	<polygon style="fill:#F7A706;" points="433.344,68.278 495.178,76.154 415.621,155.711 353.787,147.441 	"/>
	<polygon style="fill:#F7A706;" points="433.344,68.278 425.467,6.444 345.91,86.001 353.787,147.441 	"/>
</g>
<g>
	<polygon style="fill:#F47808;" points="495.178,76.154 433.344,68.278 376.237,124.991 438.07,133.262 	"/>
	<polygon style="fill:#F47808;" points="433.344,68.278 425.467,6.444 368.36,63.157 376.237,124.991 	"/>
</g>
<g>
	<path style="fill:#33363A;" d="M415.621,161.619c-0.394,0-0.394,0-0.788,0L353,153.742c-2.363-0.394-3.938-1.969-4.726-3.938
		c-0.788-1.969,0-4.332,1.575-5.908l79.557-79.557c1.182-1.181,3.151-1.969,5.12-1.575l61.834,7.877
		c2.363,0.394,3.938,1.969,4.726,3.938s0,4.332-1.575,5.908l-79.557,79.557C418.772,160.831,417.197,161.619,415.621,161.619z
		 M366.39,143.502l46.868,6.302l68.923-68.923l-46.868-6.302L366.39,143.502z"/>
	<path style="fill:#33363A;" d="M353.787,153.348c-0.788,0-1.182,0-1.969-0.394c-1.969-0.788-3.545-2.757-3.938-4.726l-7.877-61.834
		c-0.394-1.969,0.394-3.545,1.575-5.12l79.557-79.557c1.575-1.575,3.938-1.969,5.908-1.575c1.969,0.788,3.545,2.757,3.938,4.726
		l7.877,61.834c0.394,1.969-0.394,3.545-1.575,5.12l-79.557,79.557C356.938,152.954,355.363,153.348,353.787,153.348z
		 M352.212,87.97l6.302,46.868l68.923-68.923l-6.302-46.868L352.212,87.97z"/>
	<path style="fill:#33363A;" d="M411.289,135.625c-0.394,0-0.394,0-0.788,0l-33.083-4.332c-3.151-0.394-5.514-3.545-5.12-6.695
		c0.394-3.151,3.151-5.514,6.695-5.12l33.083,4.332c3.151,0.394,5.514,3.545,5.12,6.695
		C416.803,133.262,414.44,135.625,411.289,135.625z"/>
	<path style="fill:#33363A;" d="M446.341,100.573c-0.394,0-0.394,0-0.788,0l-33.083-4.332c-3.151-0.394-5.514-3.545-5.12-6.695
		c0.394-3.151,3.151-5.514,6.695-5.12l33.083,4.332c3.151,0.394,5.514,3.545,5.12,6.695
		C451.855,98.21,449.492,100.573,446.341,100.573z"/>
	<path style="fill:#33363A;" d="M410.107,114.751c-0.394,0-0.394,0-0.788,0l-13.391-1.575c-3.151-0.394-5.514-3.545-5.12-6.695
		c0.394-3.151,3.545-5.514,6.695-5.12l13.391,1.575c3.151,0.394,5.514,3.545,5.12,6.695
		C415.621,112.388,413.258,114.751,410.107,114.751z"/>
</g>
<g>
</g>
<g>
</g>
<g>
</g>
<g>
</g>
<g>
</g>
<g>
</g>
<g>
</g>
<g>
</g>
<g>
</g>
<g>
</g>
<g>
</g>
<g>
</g>
<g>
</g>
<g>
</g>
<g>
</g>
</svg>
