<svg id="Capa_1" enable-background="new 0 0 512 512" height="512" viewBox="0 0 512 512" width="512" xmlns="http://www.w3.org/2000/svg"><g><g><g><path d="m115.183 454.801v33.131c0 9.15 7.418 16.568 16.568 16.568h314.766c9.15 0 16.568-7.418 16.568-16.568v-414.165c0-9.15-7.418-16.567-16.568-16.567h-33.133z" fill="#d3e2eb"/><path d="m65.483 438.233c0 9.15 7.417 16.568 16.567 16.568h314.766c9.15 0 16.568-7.417 16.568-16.568v-414.166c0-9.15-7.418-16.567-16.568-16.567h-314.766c-9.15 0-16.567 7.417-16.567 16.567z" fill="#ecf0f9"/><path d="m396.816 7.5h-23c9.15 0 16.567 7.417 16.567 16.567v414.165c0 9.15-7.418 16.568-16.567 16.568h23c9.15 0 16.567-7.417 16.567-16.568v-414.165c0-9.15-7.417-16.567-16.567-16.567z" fill="#d8e4f0"/><path d="m446.516 57.2h-23c9.15 0 16.568 7.418 16.568 16.567v414.165c0 9.15-7.418 16.568-16.568 16.568h23c9.15 0 16.568-7.418 16.568-16.568v-414.165c-.001-9.15-7.418-16.567-16.568-16.567z" fill="#b0c4d8"/></g><g><path d="m164.883 90.334c-36.598 0-66.267 29.668-66.267 66.267 0 36.598 29.669 66.267 66.267 66.267s66.267-29.669 66.267-66.267c0-36.599-29.669-66.267-66.267-66.267zm0 82.833c-9.15 0-16.567-7.417-16.567-16.567 0-9.149 7.417-16.567 16.567-16.567s16.567 7.417 16.567 16.567c0 9.149-7.417 16.567-16.567 16.567z" fill="#90c962"/><g><path d="m322.55 123.467h-50.267c-4.418 0-8-3.582-8-8v-17.133c0-4.418 3.582-8 8-8h50.267c4.418 0 8 3.582 8 8v17.133c0 4.418-3.582 8-8 8z" fill="#4c9cd6"/></g><g><path d="m156.883 322.267h-50.267c-4.418 0-8-3.582-8-8v-17.133c0-4.418 3.582-8 8-8h50.267c4.418 0 8 3.582 8 8v17.133c0 4.418-3.582 8-8 8z" fill="#4c9cd6"/></g><path d="m164.883 90.334v49.7c9.15 0 16.567 7.417 16.567 16.567 0 4.575-1.854 8.716-4.852 11.714l35.143 35.143c11.992-11.992 19.409-28.558 19.409-46.857 0-36.599-29.669-66.267-66.267-66.267z" fill="#ffcb5b"/></g><path d="m107.183 73.767h-42.266c-8.837 0-16-7.163-16-16v-1.133c0-8.836 7.163-16 16-16h42.266c4.418 0 8 3.582 8 8v17.133c0 4.418-3.582 8-8 8z" fill="#ffcb5b"/><path d="m107.183 40.633h-23c4.418 0 8 3.582 8 8v17.133c0 4.418-3.582 8-8 8h23c4.418 0 8-3.582 8-8v-17.133c0-4.418-3.582-8-8-8z" fill="#ffb85b"/></g><g><path d="m446.516 49.699h-25.633v-25.632c0-13.27-10.797-24.067-24.068-24.067h-314.764c-13.272 0-24.069 10.797-24.069 24.067v10.112c-9.583 2.966-16.565 11.91-16.565 22.455v1.133c0 10.545 6.982 19.489 16.565 22.455v61.379c0 4.143 3.357 7.5 7.5 7.5s7.5-3.357 7.5-7.5v-60.334h34.2c8.547 0 15.5-6.953 15.5-15.5v-17.133c0-8.547-6.953-15.5-15.5-15.5h-34.2v-9.066c0-5 4.068-9.067 9.068-9.067h314.765c5 0 9.067 4.067 9.067 9.067v414.165c0 5-4.067 9.068-9.067 9.068h-314.764c-5 0-9.068-4.068-9.068-9.068v-266.632c0-4.143-3.357-7.5-7.5-7.5s-7.5 3.357-7.5 7.5v266.632c0 13.272 10.797 24.068 24.068 24.068h25.632v25.632c0 13.271 10.797 24.067 24.067 24.067h218.649c4.143 0 7.5-3.357 7.5-7.5s-3.357-7.5-7.5-7.5h-218.649c-5 0-9.067-4.067-9.067-9.067v-25.632h274.133c13.271 0 24.067-10.797 24.067-24.068v-373.534h25.633c5 0 9.067 4.068 9.067 9.068v414.165c0 5-4.067 9.067-9.067 9.067h-66.116c-4.143 0-7.5 3.357-7.5 7.5s3.357 7.5 7.5 7.5h66.116c13.271 0 24.067-10.797 24.067-24.067v-414.164c0-13.272-10.797-24.069-24.067-24.069zm-338.833-1.065v17.133c0 .275-.225.5-.5.5h-42.266c-4.687 0-8.5-3.814-8.5-8.5v-1.133c0-4.687 3.813-8.5 8.5-8.5h42.266c.275 0 .5.224.5.5z"/><path d="m164.883 230.367c20.021 0 38.193-8.029 51.498-21.021.229-.181.453-.373.665-.584.212-.212.404-.436.585-.665 12.992-13.304 21.019-31.476 21.019-51.496 0-40.675-33.092-73.767-73.767-73.767s-73.767 33.092-73.767 73.767 33.092 73.766 73.767 73.766zm58.766-73.766c0 13.504-4.59 25.949-12.275 35.883l-25.024-25.024c1.659-3.265 2.6-6.953 2.6-10.859 0-10.652-6.959-19.705-16.567-22.865v-35.407c28.873 3.697 51.266 28.41 51.266 58.272zm-58.766-9.068c5 0 9.067 4.067 9.067 9.067 0 4.999-4.067 9.066-9.067 9.066-4.999 0-9.066-4.067-9.066-9.066-.001-4.999 4.067-9.067 9.066-9.067zm-7.5-49.204v35.407c-9.608 3.16-16.566 12.212-16.566 22.865 0 13.27 10.796 24.066 24.066 24.066 3.906 0 7.595-.941 10.86-2.6l25.024 25.024c-9.935 7.686-22.38 12.276-35.884 12.276-32.404 0-58.767-26.362-58.767-58.767 0-29.861 22.394-54.574 51.267-58.271z"/><path d="m272.283 130.967h50.267c8.547 0 15.5-6.953 15.5-15.5v-17.133c0-8.547-6.953-15.5-15.5-15.5h-50.267c-8.547 0-15.5 6.953-15.5 15.5v17.133c0 8.547 6.953 15.5 15.5 15.5zm-.5-32.633c0-.275.225-.5.5-.5h50.267c.275 0 .5.225.5.5v17.133c0 .275-.225.5-.5.5h-50.267c-.275 0-.5-.225-.5-.5z"/><path d="m264.283 164.101h115.967c4.143 0 7.5-3.357 7.5-7.5s-3.357-7.5-7.5-7.5h-115.967c-4.143 0-7.5 3.357-7.5 7.5 0 4.142 3.358 7.5 7.5 7.5z"/><path d="m264.283 197.233h115.967c4.143 0 7.5-3.357 7.5-7.5s-3.357-7.5-7.5-7.5h-115.967c-4.143 0-7.5 3.357-7.5 7.5s3.358 7.5 7.5 7.5z"/><path d="m264.283 230.367h66.267c4.143 0 7.5-3.357 7.5-7.5s-3.357-7.5-7.5-7.5h-66.267c-4.143 0-7.5 3.357-7.5 7.5s3.358 7.5 7.5 7.5z"/><path d="m91.116 314.267c0 8.547 6.953 15.5 15.5 15.5h50.267c8.547 0 15.5-6.953 15.5-15.5v-17.134c0-8.547-6.953-15.5-15.5-15.5h-50.267c-8.547 0-15.5 6.953-15.5 15.5zm15-17.134c0-.275.225-.5.5-.5h50.267c.275 0 .5.225.5.5v17.134c0 .275-.225.5-.5.5h-50.267c-.275 0-.5-.225-.5-.5z"/><path d="m98.616 362.899h115.967c4.143 0 7.5-3.357 7.5-7.5s-3.357-7.5-7.5-7.5h-115.967c-4.143 0-7.5 3.357-7.5 7.5s3.358 7.5 7.5 7.5z"/><path d="m98.616 396.033h115.967c4.143 0 7.5-3.357 7.5-7.5s-3.357-7.5-7.5-7.5h-115.967c-4.143 0-7.5 3.357-7.5 7.5s3.358 7.5 7.5 7.5z"/><path d="m98.616 429.166h66.267c4.143 0 7.5-3.357 7.5-7.5s-3.357-7.5-7.5-7.5h-66.267c-4.143 0-7.5 3.357-7.5 7.5s3.358 7.5 7.5 7.5z"/><path d="m242.414 377.271c1.464 1.464 3.384 2.196 5.303 2.196s3.839-.732 5.304-2.196l29.855-29.856 45.303 15.1c2.695.897 5.667.195 7.676-1.811l36.897-36.896v81.292c0 4.999-4.067 9.066-9.067 9.066h-115.968c-4.143 0-7.5 3.357-7.5 7.5s3.357 7.5 7.5 7.5h115.966c13.271 0 24.067-10.796 24.067-24.066v-99.394c0-.003 0-.007 0-.01v-16.562c0-4.143-3.357-7.5-7.5-7.5s-7.5 3.357-7.5 7.5v13.46l-44.226 44.226-45.303-15.101c-2.697-.898-5.667-.196-7.676 1.811l-33.133 33.135c-2.928 2.928-2.928 7.676.002 10.606z"/></g></g></svg>