<?xml version="1.0" encoding="utf-8"?>
<!-- Generator: Adobe Illustrator 25.2.3, SVG Export Plug-In . SVG Version: 6.00 Build 0)  -->
<svg version="1.1" id="Layer_1" xmlns="http://www.w3.org/2000/svg" xmlns:xlink="http://www.w3.org/1999/xlink" x="0px" y="0px"
	 viewBox="0 0 512 512" style="enable-background:new 0 0 512 512;" xml:space="preserve">
<style type="text/css">
	.st0{fill:#4CAF50;}
</style>
<path id="_x30_9.Line" class="st0" d="M256,19C114.9,19,0,110.6,0,223.1C0,324,91.1,408.5,214.1,424.5c8.4,1.7,19.7,5.5,22.6,12.3
	c2.6,6.3,1.7,16.1,0.8,22.6l-3.5,21.3c-0.9,6.3-5.1,24.9,22.4,13.5c27.5-11.3,147.5-85.5,201.3-146.1C494.4,308.5,512,268,512,223
	C512,110.6,397.1,19,256,19L256,19z M155.8,290.2h-50.9c-7.3,0-13.5-6-13.5-13.1v-100c0-7.3,6.1-13.2,13.5-13.2
	c7.5,0,13.5,6,13.5,13.2v86.8h37.5c7.5,0,13.5,6,13.5,13.2C169.3,284.2,163.2,290.2,155.8,290.2z M208.4,276.9
	c0,7.2-6,13.1-13.5,13.1c-7.3,0-13.4-6-13.4-13.1V177c0-7.3,6-13.2,13.5-13.2c7.3,0,13.4,6,13.4,13.2V276.9z M330.8,276.9
	c0,5.7-3.7,10.7-9.2,12.5c-1.3,0.4-2.8,0.6-4.2,0.6c-4.5,0-8.4-1.9-10.9-5.3l-52.1-69.5v61.6c0,7.2-5.9,13.1-13.5,13.1
	c-7.3,0-13.4-6-13.4-13.1V177c0-5.7,3.7-10.7,9.2-12.4c1.2-0.5,2.9-0.7,4.1-0.7c4.1,0,8,2.2,10.6,5.4L304,239v-62
	c0-7.3,6-13.2,13.5-13.2c7.3,0,13.5,6,13.5,13.2L330.8,276.9L330.8,276.9z M413.1,213.7c7.5,0,13.5,6,13.5,13.2
	c0,7.3-6,13.2-13.5,13.2h-37.5v23.5h37.5c7.5,0,13.5,6,13.5,13.2c0,7.2-6,13.1-13.5,13.1h-50.9c-7.3,0-13.4-6-13.4-13.1v-100
	c0-7.3,6-13.2,13.5-13.2h50.9c7.3,0,13.4,6,13.4,13.2c0,7.3-6,13.2-13.5,13.2h-37.5v23.5L413.1,213.7L413.1,213.7z"/>
</svg>
