<svg id="Capa_1" enable-background="new 0 0 512 512" height="512" viewBox="0 0 512 512" width="512" xmlns="http://www.w3.org/2000/svg"><g><g><path d="m511.399 124.799c-6.298-52.8-60-124.799-179.399-124.799-99.3 0-180 60.599-180 135 0 37.8 20.7 73.2 57.001 98.699-3.9 15.601-11.4 29.7-22.5 40.8l-25.802 25.501h66.301c28.2 0 55.201-11.4 75-31.8 10.201 1.199 20.099 1.8 30 1.8 62.401.3 159.6-33.6 177.299-110.101 1.8-8.099 2.701-16.5 2.701-24.899 0-2.701 0-6-.601-10.201z" fill="#ffdf40"/></g><path d="m512 135c0 8.399-.901 16.8-2.701 24.899-17.699 76.501-114.898 110.401-177.299 110.101v-270c119.399 0 173.101 71.999 179.399 124.799.601 4.201.601 7.5.601 10.201z" fill="#ffbe40"/><g id="Phone_call_1_"><g><path d="m336.211 512c-172.822 0-336.211-163.389-336.211-336.211 0-24.814 20.186-45 45-45h70.811l35.742 107.212-29.517 44.282c19.277 40.43 67.251 88.403 107.681 107.681l44.282-29.517 107.212 35.742v70.811c0 24.814-20.186 45-45 45z" fill="#5f5166"/></g><g><g><path d="m242 90h120v30h-120z" fill="#5f5166"/></g><g><path d="m392 90h30v30h-30z" fill="#45354d"/></g><g><path d="m242 150h120v30h-120z" fill="#5f5166"/></g><g><path d="m392 150h30v30h-30z" fill="#45354d"/></g></g></g><g fill="#45354d"><path d="m381.211 396.189-51.211-17.072v132.523c2.076.048 4.131.361 6.211.361 24.814 0 45-20.186 45-45z"/><path d="m332 90h30v30h-30z"/><path d="m332 150h30v30h-30z"/></g></g></svg>