<svg id="Capa_1" enable-background="new 0 0 512 512" height="512" viewBox="0 0 512 512" width="512" xmlns="http://www.w3.org/2000/svg"><path d="m337.377 403.01-.103-18.824c-.04-27.281 9.983-53.799 28.745-73.605 25.719-27.15 41.495-63.812 41.495-104.16 0-84.391-69.005-152.666-153.673-151.488-82.951 1.155-150.065 69.874-149.348 152.824.342 39.598 15.878 75.569 41.062 102.372 18.983 20.204 29.178 47.118 29.218 74.84l.102 18.128c.022 15.109 12.278 27.346 27.388 27.345l107.73-.008c15.139-.001 27.406-12.286 27.384-27.424z" fill="#ffe933"/><path d="m407.513 206.42c0-66.292-42.584-122.63-101.887-143.179 23.427 26.672 37.633 61.642 37.633 99.931 0 40.349-15.776 77.01-41.495 104.16-18.762 19.806-28.785 46.324-28.745 73.605l.103 18.824c.022 15.139-12.244 27.423-27.384 27.424l-70.953.005.089 15.907c.022 15.109 12.278 27.346 27.388 27.345l107.73-.008c15.14-.001 27.406-12.286 27.384-27.424l-.103-18.824c-.04-27.281 9.983-53.799 28.745-73.605 25.72-27.15 41.495-63.812 41.495-104.161z" fill="#ffd635"/><path d="m309.541 430.446-.21 48.207c-.06 14.286-11.662 25.837-25.959 25.837l-54.873.01c-14.377 0-26.019-11.691-25.958-26.067l.03-5.941.06-15.027.12-27.009z" fill="#5e648b"/><path d="m310.102 207.993c-4.418 4.909-9.829 12.072-14.197 21.639-4.168 9.117-6.002 17.412-6.863 23.493h-66.165c-.331-5.41-1.412-12.904-4.719-21.209-4.519-11.361-11.211-19.235-16.1-23.973-1.243-1.202-1.513-3.066-.711-4.588 5.961-11.34 12.954-23.413 21.159-35.915 8.656-13.214 17.453-25.025 25.979-35.514.812-1.012 1.633-2.004 2.445-2.985 2.605-3.146 7.424-3.136 10.009.03.852 1.052 1.713 2.114 2.575 3.196 8.275 10.329 16.751 21.83 25.157 34.553 8.456 12.793 15.72 25.165 21.971 36.817.782 1.45.562 3.234-.54 4.456z" fill="#fff"/><path d="m222.915 253.129h66.17v30.3h-66.17z" fill="#6464ff" transform="matrix(-1 0 0 -1 512 536.558)"/><path d="m297.227 291.464v138.972l-82.455.01v-138.982c0-4.438 3.597-8.034 8.035-8.034h66.385c4.439 0 8.035 3.596 8.035 8.034z" fill="#ff95c2"/><path d="m214.515 430.441 82.455-.006v-138.971c0-4.401-3.539-7.97-7.927-8.029-10.699 17.074-16.311 37.074-16.282 57.502l.103 18.824c.022 15.139-12.244 27.423-27.384 27.424l-30.965.002z" fill="#ff80b3"/><path d="m380.835 120.212c-3.519 2.187-4.599 6.811-2.413 10.329 14.126 22.736 21.592 48.975 21.592 75.879 0 36.994-14.007 72.154-39.439 99.003-19.905 21.013-30.844 48.988-30.8 78.804l.103 18.794c.008 5.316-2.057 10.315-5.813 14.078s-8.755 5.835-14.072 5.835h-5.262v-131.472c0-5.876-3.283-10.999-8.145-13.637v-24.35c1.078-7.177 3.136-14.15 6.142-20.733 3.281-7.189 7.638-13.827 12.948-19.729 3.212-3.57 3.847-8.807 1.579-13.028-6.843-12.754-14.354-25.338-22.324-37.401-8.711-13.188-18.191-26.089-28.177-38.346-5.386-6.611-16.022-6.824-21.6-.084-10.321 12.474-20.053 25.653-28.922 39.172-7.728 11.779-14.97 24.071-21.524 36.533-2.34 4.446-1.465 9.984 2.128 13.469 6.33 6.14 11.161 13.328 14.359 21.363 2.392 6.008 3.803 12.363 4.196 18.89.004.076.018.149.024.224v24.002c-4.847 2.632-8.145 7.766-8.145 13.656v106.573c0 4.143 3.357 7.5 7.5 7.5s7.5-3.357 7.5-7.5v-72.368h67.459v97.268l-87.468.007c-10.95.001-19.872-8.906-19.888-19.887l-.102-18.097c-.044-30.163-11.143-58.562-31.252-79.965-24.854-26.452-38.715-61.009-39.028-97.302-.683-78.997 62.997-144.161 141.953-145.261.664-.009 1.325-.014 1.989-.014 39.456 0 77.503 16.337 104.655 45.01 2.848 3.008 7.596 3.138 10.603.288 3.007-2.848 3.137-7.595.288-10.603-29.979-31.659-71.982-49.695-115.548-49.695-.729 0-1.466.005-2.196.016-87.183 1.214-157.498 73.164-156.744 160.388.348 40.077 15.652 78.234 43.097 107.444 17.491 18.616 27.146 43.375 27.184 69.746l.102 18.097c.024 16.797 11.995 30.854 27.846 34.118l-.117 26.824c-.038.304-.063.611-.063.925 0 .296.021.586.055.873l-.055 12.55v.001c-.039 8.964 3.424 17.399 9.749 23.752 6.325 6.352 14.743 9.849 23.706 9.849h.005l54.875-.006c18.366-.003 33.373-14.945 33.453-33.31l.181-41.457c6.651-1.351 12.763-4.618 17.669-9.531 6.59-6.601 10.213-15.371 10.199-24.729l-.103-18.794c-.038-25.923 9.44-50.228 26.689-68.436 28.083-29.647 43.55-68.471 43.55-109.319 0-29.704-8.247-58.68-23.85-83.795-2.185-3.517-6.809-4.594-10.328-2.411zm-150.42 140.417h51.17v15.301h-51.17zm-21.196-56.121c6.002-11.238 12.573-22.313 19.554-32.954 6.176-9.413 12.785-18.653 19.728-27.592v64.515c0 4.143 3.357 7.5 7.5 7.5s7.5-3.357 7.5-7.5v-64.159c6.615 8.626 12.952 17.508 18.914 26.533 7.263 10.994 14.132 22.433 20.44 34.036-5.58 6.551-10.208 13.814-13.773 21.627-2.797 6.126-4.913 12.532-6.319 19.115h-53.149c-.869-5.656-2.368-11.177-4.48-16.485-3.655-9.175-9.001-17.451-15.915-24.636zm13.052 106.159v-19.205c0-.292.243-.53.641-.53h66.276c.299 0 .542.238.542.53v19.205zm79.557 167.952c-.044 10.131-8.323 18.374-18.455 18.375l-54.875.006h-.003c-4.943 0-9.588-1.93-13.077-5.434s-5.399-8.157-5.378-13.103l.026-5.988h70.346c4.143 0 7.5-3.357 7.5-7.5s-3.357-7.5-7.5-7.5h-70.28l.085-19.522 91.788-.01z"/><path d="m255.932 28.87c4.143 0 7.5-3.357 7.5-7.5v-13.87c0-4.143-3.357-7.5-7.5-7.5s-7.5 3.357-7.5 7.5v13.87c0 4.143 3.357 7.5 7.5 7.5z"/><path d="m453.008 203.331h-13.438c-4.143 0-7.5 3.357-7.5 7.5s3.357 7.5 7.5 7.5h13.438c4.143 0 7.5-3.357 7.5-7.5s-3.358-7.5-7.5-7.5z"/><path d="m72.431 203.331h-13.439c-4.143 0-7.5 3.357-7.5 7.5s3.357 7.5 7.5 7.5h13.438c4.143 0 7.5-3.357 7.5-7.5s-3.357-7.5-7.499-7.5z"/><path d="m385.802 84.361c1.959 0 3.916-.763 5.388-2.281l9.503-9.808c2.882-2.975 2.807-7.723-.168-10.605-2.974-2.882-7.722-2.809-10.605.168l-9.503 9.808c-2.882 2.975-2.807 7.723.168 10.605 1.455 1.411 3.337 2.113 5.217 2.113z"/><path d="m120.811 339.581-9.503 9.808c-2.882 2.975-2.807 7.723.168 10.605 1.456 1.411 3.338 2.113 5.218 2.113 1.959 0 3.916-.763 5.388-2.281l9.503-9.808c2.882-2.975 2.807-7.723-.168-10.605s-7.723-2.808-10.606.168z"/><path d="m391.189 339.581c-2.882-2.975-7.63-3.052-10.605-.168-2.975 2.883-3.05 7.631-.168 10.605l9.503 9.808c1.472 1.519 3.428 2.281 5.388 2.281 1.879 0 3.762-.702 5.218-2.113 2.975-2.883 3.05-7.631.168-10.605z"/><path d="m120.811 82.08c1.472 1.519 3.428 2.281 5.388 2.281 1.879 0 3.762-.702 5.218-2.113 2.975-2.883 3.05-7.631.168-10.605l-9.503-9.808c-2.883-2.975-7.631-3.052-10.605-.168-2.975 2.883-3.05 7.631-.168 10.605z"/></svg>