<svg xmlns="http://www.w3.org/2000/svg" viewBox="0 0 245.96 50"><defs><style>.cls-1{fill:#705f51;}.cls-2{fill:#ebb337;}</style></defs><g id="黃_排版建議"><path class="cls-1" d="M147.63,96.49a2.31,2.31,0,0,1-1.83-.89l-4.54-5.86a5.73,5.73,0,0,1,0-7l4.52-5.77a2.33,2.33,0,0,1,3.25-.39,2.29,2.29,0,0,1,.39,3.23l-4.52,5.77a1.14,1.14,0,0,0,0,1.4l4.53,5.85A2.3,2.3,0,0,1,149,96,2.27,2.27,0,0,1,147.63,96.49Z" transform="translate(45.03 -51.01)"/><ellipse class="cls-2" cx="175.57" cy="3.68" rx="3.69" ry="3.68"/><ellipse class="cls-2" cx="227.93" cy="3.68" rx="3.69" ry="3.68"/><path class="cls-1" d="M145,74.42a2.31,2.31,0,0,1-2.31-2.3V64.67H118.36v7.45a2.31,2.31,0,0,1-4.62,0V62.37a2.3,2.3,0,0,1,2.31-2.3H145a2.3,2.3,0,0,1,2.31,2.3v9.75A2.3,2.3,0,0,1,145,74.42Z" transform="translate(45.03 -51.01)"/><path class="cls-1" d="M137.58,73.52H123.43a2.31,2.31,0,1,1,0-4.61h14.15a2.31,2.31,0,1,1,0,4.61Z" transform="translate(45.03 -51.01)"/><path class="cls-1" d="M125.7,101a2.3,2.3,0,1,1,0-4.6c4.89,0,10.36-4.91,10.36-11.47s-6.19-11.42-10.36-11.42a2.31,2.31,0,1,1,0-4.61c6.93,0,15,7,15,16C140.68,93.5,133.68,101,125.7,101Z" transform="translate(45.03 -51.01)"/><path class="cls-1" d="M119.24,84.49a30.54,30.54,0,0,1-4.35-.33,2.3,2.3,0,1,1,.67-4.56c4.86.71,7.62,0,11.58-1.16A2.33,2.33,0,0,1,130,80a2.3,2.3,0,0,1-1.55,2.87A30,30,0,0,1,119.24,84.49Z" transform="translate(45.03 -51.01)"/><path class="cls-1" d="M118.77,93.11a23.35,23.35,0,0,1-4.77-.43,2.3,2.3,0,1,1,1-4.5,23.59,23.59,0,0,0,14.26-2.12,2.3,2.3,0,1,1,2.12,4.09A27.61,27.61,0,0,1,118.77,93.11Z" transform="translate(45.03 -51.01)"/><path class="cls-1" d="M162.79,99.63a2.3,2.3,0,0,1-2-3.41c6-11.06,4.44-33.45,4.42-33.67a2.28,2.28,0,0,1,.61-1.74,2.32,2.32,0,0,1,1.69-.74h30.21a2.3,2.3,0,1,1,0,4.6H169.92c.26,6.43.39,23.7-5.1,33.75A2.32,2.32,0,0,1,162.79,99.63Z" transform="translate(45.03 -51.01)"/><path class="cls-1" d="M172.79,99.63a2.31,2.31,0,0,1-1.41-4.14c6.13-4.66,5-9.51,3-12.76a4.84,4.84,0,0,1-.1-4.93l2.52-4.47h-3.24a2.31,2.31,0,1,1,0-4.61h7.19a2.3,2.3,0,0,1,2,1.15,2.26,2.26,0,0,1,0,2.29l-4.46,7.9a.25.25,0,0,0,0,.26c1.55,2.5,5.81,11.26-4.16,18.83A2.28,2.28,0,0,1,172.79,99.63Z" transform="translate(45.03 -51.01)"/><path class="cls-1" d="M194,100.2a39.57,39.57,0,0,1-23.38-7.61A2.31,2.31,0,1,1,173.5,89h0a35.67,35.67,0,0,0,24.83,6.31,2.3,2.3,0,1,1,.58,4.57A38.43,38.43,0,0,1,194,100.2Z" transform="translate(45.03 -51.01)"/><path class="cls-1" d="M196,73.7h-9.27a2.3,2.3,0,1,1,0-4.6H196a2.3,2.3,0,1,1,0,4.6Z" transform="translate(45.03 -51.01)"/><path class="cls-1" d="M196,82.21h0l-9.05-.1a2.3,2.3,0,1,1,.05-4.6l9.05.1a2.3,2.3,0,0,1,0,4.6Z" transform="translate(45.03 -51.01)"/><path class="cls-1" d="M191.5,91.76a2.3,2.3,0,0,1-2.31-2.31v-18a2.31,2.31,0,0,1,4.62,0v18A2.3,2.3,0,0,1,191.5,91.76Z" transform="translate(45.03 -51.01)"/><path class="cls-1" d="M191.74,92.25A15.37,15.37,0,0,1,183.69,90a2.3,2.3,0,0,1,2.57-3.82,10.94,10.94,0,0,0,10,.49,2.3,2.3,0,1,1,1.85,4.22A15.94,15.94,0,0,1,191.74,92.25Z" transform="translate(45.03 -51.01)"/><path class="cls-1" d="M-15.34,57a3.87,3.87,0,0,0-3.87,3.87V73.64H-37.28V60.85A3.88,3.88,0,0,0-41.16,57,3.87,3.87,0,0,0-45,60.85V94.16A3.87,3.87,0,0,0-41.16,98a3.88,3.88,0,0,0,3.88-3.87V81.38h18.07V94.16A3.87,3.87,0,0,0-15.34,98a3.87,3.87,0,0,0,3.87-3.87V60.85A3.87,3.87,0,0,0-15.34,57Z" transform="translate(45.03 -51.01)"/><path class="cls-1" d="M20.81,55.57A22.09,22.09,0,1,0,42.9,77.66,22.11,22.11,0,0,0,20.81,55.57Zm0,36A13.89,13.89,0,1,1,34.7,77.66,13.9,13.9,0,0,1,20.81,91.55Z" transform="translate(45.03 -51.01)"/><path class="cls-1" d="M94.13,57.17a3.88,3.88,0,0,0-5,2.87l-4.5,26.21a1,1,0,0,1-2.07,0L80.51,73.59a4.83,4.83,0,0,0-.16-.5,6.81,6.81,0,0,0-12.72-.26,4.24,4.24,0,0,0-.18.5L64.53,87.66a1.05,1.05,0,0,1-2.07,0L58,60.07a3.88,3.88,0,0,0-5-2.91,4.05,4.05,0,0,0-2.57,4.7L56,91.55a8.13,8.13,0,0,0,6.76,6.12,6.06,6.06,0,0,0,.73,0,6.85,6.85,0,0,0,6.27-4.25,4.24,4.24,0,0,0,.18-.5L73,76.82a.76.76,0,0,1,1.5,0l2.51,15a2.91,2.91,0,0,0,.16.5,6.81,6.81,0,0,0,7,4.49A8,8,0,0,0,91,90.88l5.66-29A4,4,0,0,0,94.13,57.17Z" transform="translate(45.03 -51.01)"/></g></svg>