<?xml version="1.0" encoding="iso-8859-1"?>
<!-- Generator: Adobe Illustrator 19.0.0, SVG Export Plug-In . SVG Version: 6.00 Build 0)  -->
<svg version="1.1" id="Capa_1" xmlns="http://www.w3.org/2000/svg" xmlns:xlink="http://www.w3.org/1999/xlink" x="0px" y="0px"
	 viewBox="0 0 409.6 409.6" style="enable-background:new 0 0 409.6 409.6;" xml:space="preserve">
<g>
	<g>
		<path fill="#fff" d="M204.8,0C91.699,0,0,91.699,0,204.8s91.699,204.8,204.8,204.8c113.116,0,204.8-91.699,204.8-204.8S317.916,0,204.8,0z
			 M292.966,297.964c-3,5.069-9.4,7.137-14.879,4.721c-1.121-0.502-2.135-1.137-3.185-1.736
			c-20.337-12.083-42.25-19.548-65.567-23.102c-14.31-2.186-28.692-2.949-43.151-2.386c-18.683,0.737-37.125,3.302-55.383,7.383
			c-1.848,0.384-3.743,0.763-5.617,0.783c-5.663,0.067-10.424-3.948-11.423-9.4c-1.05-5.734,1.812-11.136,7.086-13.251
			c1.126-0.471,2.314-0.748,3.477-0.998c14.935-3.369,30.008-5.898,45.266-7.183c8.52-0.737,17.065-1.014,25.6-1.5
			c25.242,0.266,49.951,3.686,73.917,11.802c13.235,4.434,25.866,10.214,37.852,17.367c1.05,0.599,2.099,1.198,3.052,1.935
			C294.835,286.085,296.1,292.751,292.966,297.964z M316.483,245.699c-4.25,6.999-13.051,9.165-20.383,5.012
			c-4.152-2.299-8.233-4.767-12.467-6.917c-19.384-9.887-39.936-16.287-61.271-20.316c-16.415-3.098-33.009-4.634-50.616-4.7
			c-21.949,0.102-44.406,2.816-66.365,9.298c-3.558,1.065-7.148,1.167-10.665-0.287c-5.699-2.284-9.411-8.013-9.216-14.049
			c0.215-6.313,4.065-11.802,10.143-13.65c6.2-1.92,12.477-3.548,18.78-4.931c15.56-3.466,31.319-5.284,47.232-5.883
			c34.258-1.3,67.743,3.118,100.378,13.599c16.517,5.268,32.328,12.201,47.232,21.084c0.737,0.451,1.485,0.886,2.222,1.336
			C319.263,230.067,320.2,239.636,316.483,245.699z M318.766,191.381c-8.299-4.685-16.763-8.934-25.6-12.467
			c-17.551-7.035-35.732-11.75-54.328-15.037c-12.933-2.284-25.948-3.799-39.066-4.582c-13.624-0.819-27.249-0.916-40.909-0.215
			c-15.631,0.819-31.14,2.534-46.449,5.837c-5.642,1.213-11.223,2.765-16.814,4.265c-3.436,0.917-6.799,1.034-10.22,0.015
			c-7.465-2.166-12.605-8.883-12.831-16.701c-0.225-7.634,4.475-14.699,11.858-17.131c5.391-1.766,10.941-3.185,16.502-4.449
			c13.727-3.185,27.643-5.151,41.677-6.415c14.899-1.367,29.834-1.802,44.774-1.382c36.803,1.05,72.883,6.451,107.817,18.499
			c14.234,4.915,27.935,11.013,40.97,18.616c4.649,2.719,7.767,6.533,8.95,11.802c0.282,1.27,0.348,2.586,0.517,3.85
			C345.549,189.783,330.967,198.298,318.766,191.381z"/>
	</g>
</g>
<g>
</g>
<g>
</g>
<g>
</g>
<g>
</g>
<g>
</g>
<g>
</g>
<g>
</g>
<g>
</g>
<g>
</g>
<g>
</g>
<g>
</g>
<g>
</g>
<g>
</g>
<g>
</g>
<g>
</g>
</svg>
